<?xml version="1.0" encoding="UTF-8"?>
<svg id="Capa_2" data-name="Capa 2" xmlns="http://www.w3.org/2000/svg" xmlns:xlink="http://www.w3.org/1999/xlink" viewBox="0 0 1356 354">
  <defs>
    <style>
      .cls-1, .cls-2 {
        stroke: #214561;
        stroke-miterlimit: 10;
        stroke-width: 5px;
      }

      .cls-1, .cls-3, .cls-4 {
        fill: #214561;
      }

      .cls-2, .cls-5 {
        fill: none;
      }

      .cls-3 {
        filter: url(#drop-shadow-1);
      }
    </style>
    <filter id="drop-shadow-1" filterUnits="userSpaceOnUse">
      <feOffset dx="-2" dy="5"/>
      <feGaussianBlur result="blur" stdDeviation="7"/>
      <feFlood flood-color="#000" flood-opacity=".7"/>
      <feComposite in2="blur" operator="in"/>
      <feComposite in="SourceGraphic"/>
    </filter>
  </defs>
  <g id="Capa_1-2" data-name="Capa 1">
    <g id="SECUNDARIO-1">
      <path class="cls-5" d="M934.86,270.24l-.24,.39,.24-.39c-8.12-8.97-14.4-19.59-18.14-31.13,7.29,23.99,25.19,43.35,48.23,52.66-11.46-4.87-21.75-12.32-30.09-21.53Z"/>
      <path class="cls-5" d="M993.17,258.6l-11.02-19.76-4.65-8.06c4.7,8.27,10.24,18.12,15.67,27.82Z"/>
      <path class="cls-3" d="M1336.16,26.75c.04-5.38-4.31-9.76-9.69-9.76H23.84v56.18c0,4.6,3.73,8.33,8.33,8.33l1110.19-.3,.46,245.94h94.6l-1.65-245.94h100.01s.39-54.44,.39-54.44Z"/>
      <path class="cls-4" d="M87.43,108.09H23.84v197.96c0,9.03,7.32,16.36,16.36,16.36H195.35v-42.8l-107.92-.61V108.09Z"/>
      <path class="cls-4" d="M216.75,322.41h171.52v-43.41h-108.84v-41.89h77.13c5.52,0,10-4.48,10-10v-22.8c0-5.52-4.48-10-10-10h-76.52l.31-42.19h107.92v-44.03H216.75v214.32Z"/>
      <path class="cls-4" d="M554.57,196.98c-4.51-1.58-9.12-2.87-13.79-3.89l-46.39-10.14c-4.37-.95-8.61-2.45-12.53-4.6-8.98-4.91-18.5-14.19,7.91-24.71,39.13-15.59,63.59,18.41,63.59,18.41l59.92-17.8s-20.79-57.35-103.03-57.72c-31.49-.14-53.47,7.93-68.62,17.94-28.16,18.62-38.34,55.66-22.53,85.48,7.34,13.84,20.41,26.95,43.45,33.48l68.69,14.08c5.7,1.17,11.03,3.86,15.14,7.98,4.9,4.92,7.62,11.54-4.95,16.47-25.59,10.03-60.04,10.7-79.18-18.04l-60.54,15.59s6.22,62.66,105.78,65.43c99.06,2.75,105.78-73.99,105.78-73.99,0,0,8.49-40.49-58.72-63.98Z"/>
      <path class="cls-4" d="M995.91,95.93c-65.76,0-119.08,53.31-119.08,119.08s53.32,119.08,119.08,119.08,119.09-53.31,119.09-119.08-53.32-119.08-119.09-119.08Zm79.07,143.63c-8.72,28.12-32.02,49.82-61.07,56.25h0s0,0,0,0c-17.18,4.24-34.06,2.28-48.96-4.04-23.04-9.3-40.94-28.67-48.23-52.66-4.86-15.02-5.42-31.56-.09-47.94,8.54-28.47,32.01-50.49,61.31-56.97,5.79-1.29,11.8-1.96,17.97-1.96,23.92,0,45.46,10.15,60.57,26.37h0s0,0,0,0c13.77,14.78,22.21,34.6,22.21,56.4,0,8.55-1.3,16.8-3.71,24.55Z"/>
      <path class="cls-2" d="M1023.43,215.01l33.04-56.4c-15.11-16.22-36.65-26.37-60.57-26.37-6.17,0-12.18,.67-17.97,1.96l31.73,56.97,13.76,23.84-13.76,23.83h-.69l66,.72c2.41-7.75,3.71-16,3.71-24.55,0-21.8-8.44-41.62-22.21-56.4l-33.04,56.4Z"/>
      <path class="cls-2" d="M982.15,238.84l11.02,19.76c8.39,15,16.5,29.58,20.74,37.21,29.05-6.43,52.35-28.13,61.07-56.25l-66-.72h-26.83Z"/>
      <path class="cls-2" d="M1009.67,191.17l-31.73-56.97c-29.3,6.48-52.77,28.5-61.31,56.97h93.04Z"/>
      <path class="cls-2" d="M977.5,230.78l-9.11-15.77-33.54,55.23c8.35,9.21,18.63,16.67,30.09,21.53,9.57,3.86,20.01,6.01,30.96,6.01,6.18,0,12.21-.68,18-1.97h0l-20.74-37.21c-5.43-9.7-10.97-19.55-15.67-27.82Z"/>
      <path class="cls-2" d="M968.39,215.01h0s13.76-23.84,13.76-23.84h-65.52c-2.27,7.55-3.49,15.55-3.49,23.84s1.26,16.47,3.58,24.1c3.74,11.53,10.02,22.16,18.14,31.13l33.54-55.23Z"/>
      <path class="cls-4" d="M916.63,191.17c-5.33,16.38-4.78,32.93,.09,47.94-2.32-7.63-3.58-15.72-3.58-24.1s1.22-16.29,3.49-23.84Z"/>
      <path class="cls-4" d="M995.91,297.78c-10.95,0-21.39-2.15-30.96-6.01,14.9,6.32,31.78,8.28,48.96,4.04h0c-5.79,1.29-11.82,1.97-18,1.97Z"/>
      <path class="cls-2" d="M1013.91,295.81c-4.24-7.63-12.35-22.21-20.74-37.21l20.74,37.21Z"/>
      <path class="cls-4" d="M749.19,276.24c-33.35,0-60.38-27.03-60.38-60.38s27.03-60.38,60.38-60.38c21.81,0,40.92,11.56,51.53,28.89l.34-.13,54.46-20.13c-.05-.11-.11-.23-.16-.34-19.3-39.72-60.03-67.09-107.16-67.09-65.77,0-119.08,53.31-119.08,119.08s53.31,119.08,119.08,119.08c49.78,0,92.42-30.54,110.2-73.9,.29-.72,.58-1.44,.85-2.16l-57.06-13.98c-10.25,18.73-30.14,31.43-53,31.43Z"/>
      <polygon class="cls-4" points="859.25 258.79 859.26 258.79 802.19 244.81 859.25 258.79"/>
      <polygon class="cls-4" points="801.05 184.25 800.72 184.37 855.52 164.12 856.43 163.78 855.51 164.12 855.52 164.12 801.05 184.25"/>
      <polygon class="cls-4" points="855.52 164.12 855.51 164.12 801.05 184.25 855.52 164.12"/>
      <path class="cls-1" d="M968.39,215.01s0,0,0,0h0s0,0,0,0c2.18,3.67,5.38,9.23,9.11,15.77l4.65,8.06h27.52l13.76-23.83-13.76-23.84h-27.52l-13.76,23.84Zm20.6-11.56l13.6-.15,6.92,11.71-6.67,11.85-13.6,.15-6.93-11.71,6.68-11.85Z"/>
      <path class="cls-1" d="M968.39,215.01l9.11,15.77c-3.72-6.55-6.92-12.11-9.11-15.77h0Z"/>
      <polygon class="cls-2" points="1002.84 226.86 1009.51 215.01 1002.59 203.3 988.99 203.45 982.31 215.3 989.24 227.01 1002.84 226.86"/>
    </g>
  </g>
</svg>