<?xml version="1.0" standalone="no"?>
<!DOCTYPE svg PUBLIC "-//W3C//DTD SVG 20010904//EN"
 "http://www.w3.org/TR/2001/REC-SVG-20010904/DTD/svg10.dtd">
<svg version="1.0" xmlns="http://www.w3.org/2000/svg"
 width="192.000000pt" height="192.000000pt" viewBox="0 0 192.000000 192.000000"
 preserveAspectRatio="xMidYMid meet">

<g transform="translate(0.000000,192.000000) scale(0.100000,-0.100000)"
fill="#000000" stroke="none">
<path d="M284 1166 c-3 -8 -4 -25 -2 -38 l3 -23 598 -3 597 -2 0 -130 0 -130
50 0 50 0 0 130 0 130 55 0 55 0 0 34 c0 22 -6 36 -16 40 -9 3 -324 6 -700 6
-580 0 -686 -2 -690 -14z"/>
<path d="M744 1076 c-76 -33 -51 -123 39 -141 53 -11 67 -16 67 -25 0 -18 -49
-22 -79 -7 -29 15 -81 12 -81 -4 0 -5 9 -18 19 -28 70 -70 235 -25 205 56 -10
29 -42 48 -101 63 -24 6 -43 15 -43 21 0 16 32 23 61 12 32 -12 81 -5 76 11
-7 21 -70 56 -101 56 -17 -1 -45 -7 -62 -14z"/>
<path d="M992 1070 c-41 -25 -66 -81 -57 -128 14 -73 52 -102 136 -102 43 0
55 5 80 30 17 16 28 34 25 39 -10 15 -55 19 -67 5 -12 -15 -67 -19 -85 -6 -41
27 -35 93 11 114 22 10 32 9 61 -7 28 -15 38 -16 60 -6 26 12 26 12 8 32 -46
51 -116 63 -172 29z"/>
<path d="M1264 1071 c-47 -28 -64 -59 -64 -112 0 -119 147 -169 224 -78 49 58
28 162 -40 194 -43 20 -83 19 -120 -4z m121 -47 c15 -16 25 -39 25 -55 0 -26
-4 -29 -31 -29 -23 0 -30 4 -26 14 9 22 -14 34 -68 38 l-50 3 25 25 c37 37 93
39 125 4z m-85 -52 c0 -4 -6 -14 -12 -21 -9 -9 -10 -12 -1 -9 6 2 19 -6 28
-17 9 -11 14 -14 10 -7 -4 9 6 12 40 12 42 0 45 -2 35 -19 -16 -30 -74 -46
-112 -30 -31 13 -65 70 -53 89 7 12 65 13 65 2z m30 -12 c0 -5 -4 -10 -10 -10
-5 0 -10 5 -10 10 0 6 5 10 10 10 6 0 10 -4 10 -10z"/>
<path d="M287 1073 c-4 -3 -7 -55 -7 -115 l0 -108 95 0 c88 0 95 1 95 20 0 18
-7 20 -60 20 l-60 0 0 95 0 95 -28 0 c-16 0 -32 -3 -35 -7z"/>
<path d="M490 965 l0 -115 90 0 c83 0 90 1 90 20 0 18 -7 20 -55 20 -52 0 -55
1 -55 25 0 23 4 25 45 25 38 0 45 3 45 20 0 17 -7 20 -45 20 -41 0 -45 2 -45
25 0 24 3 25 55 25 52 0 55 1 55 25 0 25 -1 25 -90 25 l-90 0 0 -115z"/>
</g>
</svg>
