<?xml version="1.0" standalone="no"?>
<!DOCTYPE svg PUBLIC "-//W3C//DTD SVG 1.1//EN" "http://www.w3.org/Graphics/SVG/1.1/DTD/svg11.dtd" >
<svg xmlns="http://www.w3.org/2000/svg" xmlns:xlink="http://www.w3.org/1999/xlink" version="1.1">
<metadata>
Created by FontForge 20200314 at Thu Feb  5 08:17:45 2015
 By Unknown
Copyright (c) 2012, Nick Curtis. All Rights Reserved. Unauthorized duplication or redistribution by any means is expressly prohibited.
</metadata>
<defs>
<font id="ReceptsNFW01-Regular" horiz-adv-x="2176" >
  <font-face 
    font-family="ReceptsNFW01-Regular"
    font-weight="400"
    font-stretch="normal"
    units-per-em="2048"
    panose-1="1 0 0 0 0 0 0 0 0 0"
    ascent="1638"
    descent="-410"
    x-height="1500"
    cap-height="1500"
    bbox="-190 -478 3658 2074"
    underline-thickness="102"
    underline-position="-358"
    unicode-range="U+000D-2122"
  />
<missing-glyph horiz-adv-x="1000" 
 />
    <glyph glyph-name=".notdef" horiz-adv-x="1000" 
 />
    <glyph glyph-name="glyph1" horiz-adv-x="0" 
 />
    <glyph glyph-name="glyph1" horiz-adv-x="0" 
 />
    <glyph glyph-name="uni000D" unicode="&#xd;" horiz-adv-x="930" 
 />
    <glyph glyph-name="space" unicode=" " horiz-adv-x="930" 
 />
    <glyph glyph-name="exclam" unicode="!" horiz-adv-x="618" 
d="M468 0h-318v316h318v-316zM468 590h-318v910h318v-910z" />
    <glyph glyph-name="quotedbl" unicode="&#x22;" horiz-adv-x="1206" 
d="M626 1500l-150 -614h-326l150 614h326zM1056 1500l-150 -614h-326l150 614h326z" />
    <glyph glyph-name="numbersign" unicode="#" horiz-adv-x="1834" 
d="M1064 870h-238l-56 -242h238zM1684 310h-424l-72 -310h-324l72 310h-240l-70 -310h-326l72 310h-222v318h296l56 242h-352v318h424l72 312h326l-72 -312h238l72 312h326l-72 -312h220v-318h-294l-56 -242h350v-318z" />
    <glyph glyph-name="dollar" unicode="$" horiz-adv-x="2098" 
d="M1948 456q0 -81 -31 -152q-31 -72 -85 -125t-125 -84q-72 -31 -153 -31h-264v-286h-318v286h-822v316h1404q32 0 54 22t22 54v58q0 32 -22 54t-54 22h-1010q-81 0 -152 31q-72 31 -126 85t-85 126q-31 71 -31 152v58q0 81 31 153q31 71 85 125t126 85q71 31 152 31h428
v286h318v-286h658v-318h-1404q-32 0 -54 -22t-22 -54v-58q0 -32 22 -54t54 -22h1010q81 0 153 -31q71 -31 125 -85t85 -125q31 -72 31 -153v-58z" />
    <glyph glyph-name="percent" unicode="%" horiz-adv-x="3368" 
d="M990 862v320h-522v-320h522zM2384 1500l-1024 -1500h-384l808 1182h-478v-350q0 -59 -22 -111q-23 -53 -62 -92t-91 -62t-111 -23h-582q-59 0 -111 23q-53 23 -92 62t-62 92q-23 52 -23 111v380q0 59 23 112q23 52 62 91t92 62q52 23 111 23h1946zM2902 316v320h-522
v-320h522zM3218 286q0 -59 -22 -111q-23 -52 -62 -91t-91 -61q-52 -23 -111 -23h-582q-59 0 -111 23q-53 22 -92 61t-62 91t-23 111v380q0 59 23 112q23 52 62 91t92 62q52 23 111 23h582q59 0 111 -23t91 -62t62 -91q22 -53 22 -112v-380z" />
    <glyph glyph-name="ampersand" unicode="&#x26;" horiz-adv-x="2246" 
d="M1150 316l-360 274h-236q-35 0 -60 -25q-26 -26 -26 -61v-100q0 -18 7 -34t19 -28t28 -19q15 -7 32 -7h596zM2096 0h-1542q-83 0 -156 32q-74 32 -129 87t-87 129q-32 73 -32 156v100q0 68 22 131t62 115q39 51 94 89q55 37 120 55q-27 44 -42 93q-16 49 -16 105
q0 83 32 158q32 74 87 130q55 55 129 88q73 32 156 32h546q83 0 157 -32q73 -32 128 -87q55 -56 87 -130t32 -157v-158h-316v158q0 18 -7 34t-19 28t-28 19t-34 7h-546q-36 0 -61 -26t-25 -64q0 -29 22 -51q21 -22 42 -39l856 -648q54 33 86 88t32 120v264h318v-264
q0 -116 -45 -221q-46 -105 -129 -185z" />
    <glyph glyph-name="quotesingle" unicode="'" horiz-adv-x="776" 
d="M626 1500l-150 -614h-326l150 614h326z" />
    <glyph glyph-name="parenleft" unicode="(" horiz-adv-x="898" 
d="M748 -158h-202q-82 0 -154 31t-126 84q-54 54 -85 126q-31 71 -31 153v866q0 82 31 155q31 72 85 126t126 86q72 31 154 31h202v-318h-202q-32 0 -55 -23q-23 -24 -23 -57v-866q0 -33 23 -56q23 -24 55 -24h202v-314z" />
    <glyph glyph-name="parenright" unicode=")" horiz-adv-x="898" 
d="M748 236q0 -82 -31 -153q-32 -72 -86 -126q-54 -53 -126 -84q-73 -31 -155 -31h-200v314h200q33 0 57 24q23 23 23 56v866q0 33 -23 57q-24 23 -57 23h-200v318h200q82 0 155 -31q72 -32 126 -86t86 -126q31 -73 31 -155v-866z" />
    <glyph glyph-name="asterisk" unicode="*" horiz-adv-x="1394" 
d="M1244 694l-202 -244l-186 154v-226h-318v226l-188 -154l-200 244l298 244l-298 246l200 244l188 -154v226h318v-226l186 154l202 -244l-298 -246z" />
    <glyph glyph-name="plus" unicode="+" horiz-adv-x="1486" 
d="M1336 590h-434v-434h-318v434h-434v318h434v434h318v-434h434v-318z" />
    <glyph glyph-name="comma" unicode="," horiz-adv-x="618" 
d="M468 120q0 -66 -25 -123t-68 -100q-44 -42 -102 -67q-58 -24 -123 -24v510h318v-196z" />
    <glyph glyph-name="hyphen" unicode="-" horiz-adv-x="830" 
d="M680 590h-530v318h530v-318z" />
    <glyph glyph-name="period" unicode="." horiz-adv-x="618" 
d="M468 0h-318v316h318v-316z" />
    <glyph glyph-name="slash" unicode="/" horiz-adv-x="1646" 
d="M1496 1500l-968 -1500h-378l968 1500h378z" />
    <glyph glyph-name="zero" unicode="0" 
d="M1368 1182h-822q-32 0 -55 -23q-23 -24 -23 -57v-654zM1708 1050l-900 -734h820q33 0 57 24q23 23 23 56v654zM2026 396q0 -82 -31 -154q-32 -72 -86 -126t-126 -85q-73 -31 -155 -31h-1082q-82 0 -154 31t-126 85t-85 126t-31 154v706q0 82 31 155q31 72 85 126t126 86
q72 31 154 31h1082q82 0 155 -31q72 -32 126 -86t86 -126q31 -73 31 -155v-706z" />
    <glyph glyph-name="one" unicode="1" horiz-adv-x="1274" 
d="M1124 0h-316v1106q0 32 -23 54t-53 22h-582v318h582q81 0 153 -31q71 -31 124 -85t84 -125q31 -72 31 -153v-1106z" />
    <glyph glyph-name="two" unicode="2" horiz-adv-x="2098" 
d="M1948 984q0 -81 -31 -152q-31 -72 -85 -126t-125 -85q-72 -31 -153 -31h-1010q-32 0 -54 -22t-22 -54v-198h1480v-316h-1798v514q0 81 31 153q31 71 85 125t126 85q71 31 152 31h1010q32 0 54 22t22 54v122q0 32 -22 54t-54 22h-1404v318h1404q81 0 153 -31
q71 -31 125 -85t85 -125q31 -72 31 -153v-122z" />
    <glyph glyph-name="three" unicode="3" 
d="M2026 404q0 -83 -32 -156q-32 -74 -87 -129q-56 -55 -130 -87t-157 -32h-1470v316h1470q18 0 34 7t28 19t19 28t7 34v100q0 17 -7 33q-7 15 -19 27t-28 19t-34 7h-1470v318h1470q18 0 34 7t28 19t19 28t7 34v98q0 18 -7 34t-19 28t-28 19t-34 7h-1470v318h1470
q83 0 157 -32t130 -87q55 -56 87 -130t32 -157v-98q0 -71 -22 -133q-23 -62 -62 -113q39 -51 62 -114q22 -63 22 -132v-100z" />
    <glyph glyph-name="four" unicode="4" horiz-adv-x="2198" 
d="M2048 0h-316v590h-1582l876 910h440l-570 -592h836v592h316v-1500z" />
    <glyph glyph-name="five" unicode="5" horiz-adv-x="2098" 
d="M1948 392q0 -81 -31 -152q-31 -72 -85 -125t-125 -84q-72 -31 -153 -31h-1404v316h1404q32 0 54 22t22 54v122q0 32 -22 54t-54 22h-1404v910h1798v-318h-1480v-274h1086q81 0 153 -31q71 -31 125 -85t85 -125q31 -72 31 -153v-122z" />
    <glyph glyph-name="six" unicode="6" horiz-adv-x="2098" 
d="M1948 392q0 -81 -31 -152q-31 -72 -85 -125t-125 -84q-72 -31 -153 -31h-1010q-81 0 -152 31q-72 31 -126 84t-85 125q-31 71 -31 152v714q0 81 31 153q31 71 85 125t126 85q71 31 152 31h1404v-318h-1404q-32 0 -54 -22t-22 -54v-198h1086q81 0 153 -31q71 -31 125 -85
t85 -125q31 -72 31 -153v-122zM1630 514q0 32 -22 54t-54 22h-1086v-198q0 -32 22 -54t54 -22h1010q32 0 54 22t22 54v122z" />
    <glyph glyph-name="seven" unicode="7" horiz-adv-x="2372" 
d="M2222 1500l-530 -592h386v-318h-670l-528 -590h-426l528 590h-496v318h780l246 274h-1362v318h2072z" />
    <glyph glyph-name="eight" unicode="8" horiz-adv-x="2134" 
d="M1984 404q0 -83 -32 -156q-32 -74 -87 -129t-128 -87q-74 -32 -157 -32h-1026q-83 0 -156 32q-74 32 -129 87t-87 129q-32 73 -32 156v100q0 69 23 132q22 63 61 114q-39 51 -61 113q-23 62 -23 133v98q0 83 32 157t87 130q55 55 129 87q73 32 156 32h1026q83 0 157 -32
q73 -32 128 -87q55 -56 87 -130t32 -157v-98q0 -71 -21 -133q-22 -62 -61 -113q39 -51 61 -114q21 -63 21 -132v-100zM1668 504q0 17 -7 33q-7 15 -19 27t-28 19t-34 7h-1026q-35 0 -60 -25q-26 -26 -26 -61v-100q0 -18 7 -34t19 -28t28 -19q15 -7 32 -7h1026q18 0 34 7
t28 19t19 28t7 34v100zM1668 1094q0 18 -7 34t-19 28t-28 19t-34 7h-1026q-17 0 -32 -7q-16 -7 -28 -19t-19 -28t-7 -34v-98q0 -18 7 -34t19 -28t28 -19q15 -7 32 -7h1026q18 0 34 7t28 19t19 28t7 34v98z" />
    <glyph glyph-name="nine" unicode="9" horiz-adv-x="2098" 
d="M1630 908v198q0 32 -22 54t-54 22h-1010q-32 0 -54 -22t-22 -54v-122q0 -32 22 -54t54 -22h1086zM1948 392q0 -81 -31 -152q-31 -72 -85 -125t-125 -84q-72 -31 -153 -31h-1404v316h1404q32 0 54 22t22 54v198h-1086q-81 0 -152 31q-72 31 -126 85t-85 126
q-31 71 -31 152v122q0 81 31 153q31 71 85 125t126 85q71 31 152 31h1010q81 0 153 -31q71 -31 125 -85t85 -125q31 -72 31 -153v-714z" />
    <glyph glyph-name="colon" unicode=":" horiz-adv-x="618" 
d="M468 0h-318v316h318v-316zM468 590h-318v318h318v-318z" />
    <glyph glyph-name="semicolon" unicode=";" horiz-adv-x="618" 
d="M468 120q0 -66 -25 -123t-68 -100q-44 -42 -102 -67q-58 -24 -123 -24v510h318v-196zM468 590h-318v318h318v-318z" />
    <glyph glyph-name="less" unicode="&#x3c;" horiz-adv-x="1486" 
d="M1336 60l-1186 546v286l1186 548v-350l-738 -340l738 -342v-348z" />
    <glyph glyph-name="equal" unicode="=" horiz-adv-x="1486" 
d="M1336 350h-1186v318h1186v-318zM1336 830h-1186v318h1186v-318z" />
    <glyph glyph-name="greater" unicode="&#x3e;" horiz-adv-x="1486" 
d="M1336 606l-1186 -546v348l740 342l-740 340v350l1186 -548v-286z" />
    <glyph glyph-name="question" unicode="?" horiz-adv-x="1858" 
d="M828 0h-318v316h318v-316zM1708 1028q0 -80 -30 -151q-31 -72 -83 -126q-53 -54 -123 -85q-71 -32 -150 -32h-804q13 67 49 126q35 58 86 101q51 42 116 67q64 24 135 24h410q32 0 54 22t22 54v78q0 32 -22 54t-54 22h-1164v318h1164q81 0 153 -31q71 -31 125 -85
t85 -125q31 -72 31 -153v-78z" />
    <glyph glyph-name="at" unicode="@" horiz-adv-x="2018" 
d="M886 388q-74 0 -139 29q-66 28 -115 77t-77 115q-29 66 -29 141q0 74 29 140q28 65 77 114t115 78q65 28 139 28h664q-2 30 -24 51t-52 21h-930q-32 0 -54 -22t-22 -54v-714q0 -30 22 -53t54 -23h1324v-316h-1324q-81 0 -152 31q-72 31 -126 84t-85 125q-31 71 -31 152
v714q0 81 31 153q31 71 85 125t126 85q71 31 152 31h930q80 0 152 -31q71 -31 125 -84t86 -124q31 -71 31 -151v-722h-982zM1550 706v86h-664q-18 0 -30 -12q-12 -13 -12 -30q0 -18 12 -31t30 -13h664z" />
    <glyph glyph-name="A" unicode="A" 
d="M1708 908v194q0 33 -23 57q-24 23 -57 23h-1082q-32 0 -55 -23q-23 -24 -23 -57v-194h1240zM2026 0h-318v590h-1240v-590h-318v1102q0 82 31 155q31 72 85 126t126 86q72 31 154 31h1082q82 0 155 -31q72 -32 126 -86t86 -126q31 -73 31 -155v-1102z" />
    <glyph glyph-name="B" unicode="B" 
d="M2026 404q0 -83 -32 -156q-32 -74 -87 -129q-56 -55 -130 -87t-157 -32h-1470v908h1470q18 0 34 7t28 19t19 28t7 34v98q0 18 -7 34t-19 28t-28 19t-34 7h-1470v318h1470q83 0 157 -32t130 -87q55 -56 87 -130t32 -157v-98q0 -71 -22 -133q-23 -62 -62 -113
q39 -51 62 -114q22 -63 22 -132v-100zM1708 504q0 17 -7 33q-7 15 -19 27t-28 19t-34 7h-1152v-274h1152q18 0 34 7t28 19t19 28t7 34v100z" />
    <glyph glyph-name="C" unicode="C" horiz-adv-x="2104" 
d="M1954 0h-1410q-81 0 -152 31q-72 31 -126 84t-85 125q-31 71 -31 152v714q0 81 31 153q31 71 85 125t126 85q71 31 152 31h1410v-318h-1410q-32 0 -54 -22t-22 -54v-714q0 -30 22 -53t54 -23h1410v-316z" />
    <glyph glyph-name="D" unicode="D" horiz-adv-x="2104" 
d="M1954 392q0 -81 -31 -152q-31 -72 -85 -125t-125 -84q-72 -31 -153 -31h-1410v908h318v-592h1092q15 0 29 6q13 6 24 17q10 10 17 24q6 14 6 29v714q0 32 -23 54t-53 22h-1410v318h1410q81 0 153 -31q71 -31 125 -85t85 -125q31 -72 31 -153v-714z" />
    <glyph glyph-name="E" unicode="E" horiz-adv-x="2118" 
d="M1968 0h-1818v908h1818v-318h-1500v-274h1500v-316zM1968 1182h-1818v318h1818v-318z" />
    <glyph glyph-name="F" unicode="F" horiz-adv-x="2118" 
d="M1968 590h-1500v-590h-318v908h1818v-318zM1968 1182h-1818v318h1818v-318z" />
    <glyph glyph-name="G" unicode="G" horiz-adv-x="2104" 
d="M1954 0h-1410q-81 0 -152 31q-72 31 -126 84t-85 125q-31 71 -31 152v714q0 81 31 153q31 71 85 125t126 85q71 31 152 31h1410v-318h-1410q-32 0 -54 -22t-22 -54v-714q0 -30 22 -53t54 -23h1092v592h318v-908z" />
    <glyph glyph-name="H" unicode="H" 
d="M468 1182h-318v318h318v-318zM2026 0h-318v590h-1240v-590h-318v908h1558v592h318v-1500z" />
    <glyph glyph-name="I" unicode="I" horiz-adv-x="618" 
d="M468 0h-318v1500h318v-1500z" />
    <glyph glyph-name="J" unicode="J" horiz-adv-x="2104" 
d="M1954 392q0 -81 -31 -152q-31 -72 -85 -125t-125 -84q-72 -31 -153 -31h-1410v316h1410q32 0 54 23t22 53v1108h318v-1108z" />
    <glyph glyph-name="K" unicode="K" horiz-adv-x="2104" 
d="M468 -2h-318v1502h318v-1502zM1954 0h-318v514q0 32 -23 54t-53 22h-1088l876 910h440l-570 -592h342q81 0 153 -31q71 -31 125 -85t85 -125q31 -72 31 -153v-514z" />
    <glyph glyph-name="L" unicode="L" horiz-adv-x="2104" 
d="M1954 0h-1410q-81 0 -152 31q-72 31 -126 84t-85 125q-31 71 -31 152v1108h318v-1108q0 -30 22 -53t54 -23h1410v-316z" />
    <glyph glyph-name="M" unicode="M" 
d="M468 0h-318v908h318v-908zM1246 0h-318v908h318v-908zM2026 0h-318v1094q0 18 -7 34t-19 28t-28 19t-34 7h-1470v318h1470q83 0 157 -32t130 -87q55 -56 87 -130t32 -157v-1094z" />
    <glyph glyph-name="N" unicode="N" 
d="M2026 0h-318v1094q0 18 -7 34t-19 28t-28 19t-34 7h-1470v318h1470q83 0 157 -32t130 -87q55 -56 87 -130t32 -157v-1094zM468 0h-318v908h318v-908z" />
    <glyph glyph-name="O" unicode="O" 
d="M2026 396q0 -82 -31 -154q-32 -72 -86 -126t-126 -85q-73 -31 -155 -31h-1082q-82 0 -154 31t-126 85t-85 126t-31 154v706q0 82 31 155q31 72 85 126t126 86q72 31 154 31h1082q82 0 155 -31q72 -32 126 -86t86 -126q31 -73 31 -155v-706zM1708 1102q0 33 -23 57
q-24 23 -57 23h-1082q-32 0 -55 -23q-23 -24 -23 -57v-706q0 -33 23 -56q23 -24 55 -24h1082q33 0 57 24q23 23 23 56v706z" />
    <glyph glyph-name="P" unicode="P" horiz-adv-x="2152" 
d="M2002 984q0 -81 -31 -152q-31 -72 -85 -126t-125 -85q-72 -31 -153 -31h-1140v-590h-318v908h1458q30 0 53 22t23 54v122q0 32 -23 54t-53 22h-1458v318h1458q81 0 153 -31q71 -31 125 -85t85 -125q31 -72 31 -153v-122z" />
    <glyph glyph-name="Q" unicode="Q" horiz-adv-x="2410" 
d="M2260 0h-1714q-82 0 -154 31t-126 85t-85 126t-31 154v706q0 82 31 155q31 72 85 126t126 86q72 31 154 31h1082q82 0 155 -31q72 -32 126 -86t86 -126q31 -73 31 -155v-544h-318v544q0 33 -23 57q-24 23 -57 23h-1082q-32 0 -55 -23q-23 -24 -23 -57v-706q0 -33 23 -56
q23 -24 55 -24h1714v-316z" />
    <glyph glyph-name="R" unicode="R" horiz-adv-x="2438" 
d="M2366 0h-686l-1530 810v98h1458q30 0 53 22t23 54v122q0 32 -23 54t-53 22h-1458v318h1458q81 0 153 -31q71 -31 125 -85t85 -125q31 -72 31 -153v-122q0 -81 -31 -152q-31 -72 -85 -126t-125 -85q-72 -31 -153 -31h-378z" />
    <glyph glyph-name="S" unicode="S" horiz-adv-x="2098" 
d="M1948 392q0 -81 -31 -152q-31 -72 -85 -125t-125 -84q-72 -31 -153 -31h-1404v316h1404q32 0 54 22t22 54v122q0 32 -22 54t-54 22h-1010q-81 0 -152 31q-72 31 -126 85t-85 126q-31 71 -31 152v122q0 81 31 153q31 71 85 125t126 85q71 31 152 31h1404v-318h-1404
q-32 0 -54 -22t-22 -54v-122q0 -32 22 -54t54 -22h1010q81 0 153 -31q71 -31 125 -85t85 -125q31 -72 31 -153v-122z" />
    <glyph glyph-name="T" unicode="T" horiz-adv-x="2174" 
d="M1246 0h-318v908h318v-908zM2024 1182h-1874v318h1874v-318z" />
    <glyph glyph-name="U" unicode="U" 
d="M2026 370q0 -77 -29 -144q-30 -67 -80 -117q-51 -51 -119 -80t-144 -29h-1132q-77 0 -144 29q-68 29 -118 80q-51 50 -80 117q-30 67 -30 144v1130h318v-1130q0 -21 16 -37q15 -17 38 -17h1132q23 0 39 17q15 16 15 37v1130h318v-1130z" />
    <glyph glyph-name="V" unicode="V" horiz-adv-x="2598" 
d="M2448 1500l-1118 -1500h-160l-1118 1500h396l802 -1076l802 1076h396z" />
    <glyph glyph-name="W" unicode="W" horiz-adv-x="3286" 
d="M1150 158l-86 -158h-188l-804 1500h358zM3136 1500l-804 -1500h-188l-540 1006l-276 -514l-178 336l360 672h188l540 -1008l538 1008h360z" />
    <glyph glyph-name="X" unicode="X" horiz-adv-x="3028" 
d="M2878 0h-568l-836 558l-834 -558h-568l1118 750l-1118 750h568l834 -560l836 560h568l-1120 -750z" />
    <glyph glyph-name="Y" unicode="Y" 
d="M2026 962q0 -77 -29 -144q-30 -68 -80 -118q-51 -51 -119 -80q-68 -30 -144 -30h-408v-590h-318v590h-406q-77 0 -144 30q-68 29 -118 80q-51 50 -80 118q-30 67 -30 144v538h318v-538q0 -23 16 -38q15 -16 38 -16h1132q23 0 39 16q15 15 15 38v538h318v-538z" />
    <glyph glyph-name="Z" unicode="Z" horiz-adv-x="1958" 
d="M1808 0h-1658v318l1122 864h-1122v318h1658v-314l-1128 -870h1128v-316z" />
    <glyph glyph-name="bracketleft" unicode="[" horiz-adv-x="906" 
d="M756 -158h-606v1658h606v-318h-288v-1026h288v-314z" />
    <glyph glyph-name="backslash" unicode="\" horiz-adv-x="1646" 
d="M1496 -2h-378l-968 1498h378z" />
    <glyph glyph-name="bracketright" unicode="]" horiz-adv-x="906" 
d="M756 -166h-606v316h288v1026h-288v316h606v-1658z" />
    <glyph glyph-name="asciicircum" unicode="^" horiz-adv-x="1728" 
d="M1578 648h-396l-318 428l-318 -428h-396l634 852h160z" />
    <glyph glyph-name="underscore" unicode="_" horiz-adv-x="1000" 
d="M1000 -178h-1000v178h1000v-178z" />
    <glyph glyph-name="grave" unicode="`" horiz-adv-x="1188" 
d="M598 2004l440 -432h-240l-648 432h448z" />
    <glyph glyph-name="a" unicode="a" 
d="M1708 908v194q0 33 -23 57q-24 23 -57 23h-1082q-32 0 -55 -23q-23 -24 -23 -57v-194h1240zM2026 0h-318v590h-1240v-590h-318v1102q0 82 31 155q31 72 85 126t126 86q72 31 154 31h1082q82 0 155 -31q72 -32 126 -86t86 -126q31 -73 31 -155v-1102z" />
    <glyph glyph-name="b" unicode="b" 
d="M2026 404q0 -83 -32 -156q-32 -74 -87 -129q-56 -55 -130 -87t-157 -32h-1470v908h1470q18 0 34 7t28 19t19 28t7 34v98q0 18 -7 34t-19 28t-28 19t-34 7h-1470v318h1470q83 0 157 -32t130 -87q55 -56 87 -130t32 -157v-98q0 -71 -22 -133q-23 -62 -62 -113
q39 -51 62 -114q22 -63 22 -132v-100zM1708 504q0 17 -7 33q-7 15 -19 27t-28 19t-34 7h-1152v-274h1152q18 0 34 7t28 19t19 28t7 34v100z" />
    <glyph glyph-name="c" unicode="c" horiz-adv-x="2104" 
d="M1954 0h-1410q-81 0 -152 31q-72 31 -126 84t-85 125q-31 71 -31 152v714q0 81 31 153q31 71 85 125t126 85q71 31 152 31h1410v-318h-1410q-32 0 -54 -22t-22 -54v-714q0 -30 22 -53t54 -23h1410v-316z" />
    <glyph glyph-name="d" unicode="d" horiz-adv-x="2104" 
d="M1954 392q0 -81 -31 -152q-31 -72 -85 -125t-125 -84q-72 -31 -153 -31h-1410v908h318v-592h1092q15 0 29 6q13 6 24 17q10 10 17 24q6 14 6 29v714q0 32 -23 54t-53 22h-1410v318h1410q81 0 153 -31q71 -31 125 -85t85 -125q31 -72 31 -153v-714z" />
    <glyph glyph-name="e" unicode="e" horiz-adv-x="2118" 
d="M1968 0h-1818v908h1818v-318h-1500v-274h1500v-316zM1968 1182h-1818v318h1818v-318z" />
    <glyph glyph-name="f" unicode="f" horiz-adv-x="2118" 
d="M1968 590h-1500v-590h-318v908h1818v-318zM1968 1182h-1818v318h1818v-318z" />
    <glyph glyph-name="g" unicode="g" horiz-adv-x="2104" 
d="M1954 0h-1410q-81 0 -152 31q-72 31 -126 84t-85 125q-31 71 -31 152v714q0 81 31 153q31 71 85 125t126 85q71 31 152 31h1410v-318h-1410q-32 0 -54 -22t-22 -54v-714q0 -30 22 -53t54 -23h1092v592h318v-908z" />
    <glyph glyph-name="h" unicode="h" 
d="M468 1182h-318v318h318v-318zM2026 0h-318v590h-1240v-590h-318v908h1558v592h318v-1500z" />
    <glyph glyph-name="i" unicode="i" horiz-adv-x="618" 
d="M468 0h-318v1500h318v-1500z" />
    <glyph glyph-name="j" unicode="j" horiz-adv-x="2104" 
d="M1954 392q0 -81 -31 -152q-31 -72 -85 -125t-125 -84q-72 -31 -153 -31h-1410v316h1410q32 0 54 23t22 53v1108h318v-1108z" />
    <glyph glyph-name="k" unicode="k" horiz-adv-x="2104" 
d="M468 -2h-318v1502h318v-1502zM1954 0h-318v514q0 32 -23 54t-53 22h-1088l876 910h440l-570 -592h342q81 0 153 -31q71 -31 125 -85t85 -125q31 -72 31 -153v-514z" />
    <glyph glyph-name="l" unicode="l" horiz-adv-x="2104" 
d="M1954 0h-1410q-81 0 -152 31q-72 31 -126 84t-85 125q-31 71 -31 152v1108h318v-1108q0 -30 22 -53t54 -23h1410v-316z" />
    <glyph glyph-name="m" unicode="m" 
d="M468 0h-318v908h318v-908zM1246 0h-318v908h318v-908zM2026 0h-318v1094q0 18 -7 34t-19 28t-28 19t-34 7h-1470v318h1470q83 0 157 -32t130 -87q55 -56 87 -130t32 -157v-1094z" />
    <glyph glyph-name="n" unicode="n" 
d="M2026 0h-318v1094q0 18 -7 34t-19 28t-28 19t-34 7h-1470v318h1470q83 0 157 -32t130 -87q55 -56 87 -130t32 -157v-1094zM468 0h-318v908h318v-908z" />
    <glyph glyph-name="o" unicode="o" 
d="M2026 396q0 -82 -31 -154q-32 -72 -86 -126t-126 -85q-73 -31 -155 -31h-1082q-82 0 -154 31t-126 85t-85 126t-31 154v706q0 82 31 155q31 72 85 126t126 86q72 31 154 31h1082q82 0 155 -31q72 -32 126 -86t86 -126q31 -73 31 -155v-706zM1708 1102q0 33 -23 57
q-24 23 -57 23h-1082q-32 0 -55 -23q-23 -24 -23 -57v-706q0 -33 23 -56q23 -24 55 -24h1082q33 0 57 24q23 23 23 56v706z" />
    <glyph glyph-name="p" unicode="p" horiz-adv-x="2152" 
d="M2002 984q0 -81 -31 -152q-31 -72 -85 -126t-125 -85q-72 -31 -153 -31h-1140v-590h-318v908h1458q30 0 53 22t23 54v122q0 32 -23 54t-53 22h-1458v318h1458q81 0 153 -31q71 -31 125 -85t85 -125q31 -72 31 -153v-122z" />
    <glyph glyph-name="q" unicode="q" horiz-adv-x="2410" 
d="M2260 0h-1714q-82 0 -154 31t-126 85t-85 126t-31 154v706q0 82 31 155q31 72 85 126t126 86q72 31 154 31h1082q82 0 155 -31q72 -32 126 -86t86 -126q31 -73 31 -155v-544h-318v544q0 33 -23 57q-24 23 -57 23h-1082q-32 0 -55 -23q-23 -24 -23 -57v-706q0 -33 23 -56
q23 -24 55 -24h1714v-316z" />
    <glyph glyph-name="r" unicode="r" horiz-adv-x="2438" 
d="M2366 0h-686l-1530 810v98h1458q30 0 53 22t23 54v122q0 32 -23 54t-53 22h-1458v318h1458q81 0 153 -31q71 -31 125 -85t85 -125q31 -72 31 -153v-122q0 -81 -31 -152q-31 -72 -85 -126t-125 -85q-72 -31 -153 -31h-378z" />
    <glyph glyph-name="s" unicode="s" horiz-adv-x="2098" 
d="M1948 392q0 -81 -31 -152q-31 -72 -85 -125t-125 -84q-72 -31 -153 -31h-1404v316h1404q32 0 54 22t22 54v122q0 32 -22 54t-54 22h-1010q-81 0 -152 31q-72 31 -126 85t-85 126q-31 71 -31 152v122q0 81 31 153q31 71 85 125t126 85q71 31 152 31h1404v-318h-1404
q-32 0 -54 -22t-22 -54v-122q0 -32 22 -54t54 -22h1010q81 0 153 -31q71 -31 125 -85t85 -125q31 -72 31 -153v-122z" />
    <glyph glyph-name="t" unicode="t" horiz-adv-x="2174" 
d="M1246 0h-318v908h318v-908zM2024 1182h-1874v318h1874v-318z" />
    <glyph glyph-name="u" unicode="u" 
d="M2026 370q0 -77 -29 -144q-30 -67 -80 -117q-51 -51 -119 -80t-144 -29h-1132q-77 0 -144 29q-68 29 -118 80q-51 50 -80 117q-30 67 -30 144v1130h318v-1130q0 -21 16 -37q15 -17 38 -17h1132q23 0 39 17q15 16 15 37v1130h318v-1130z" />
    <glyph glyph-name="v" unicode="v" horiz-adv-x="2618" 
d="M2468 1500l-1118 -1500h-160l-1118 1500h396l802 -1076l802 1076h396z" />
    <glyph glyph-name="w" unicode="w" horiz-adv-x="3286" 
d="M1150 158l-86 -158h-188l-804 1500h358zM3136 1500l-804 -1500h-188l-540 1006l-276 -514l-178 336l360 672h188l540 -1008l538 1008h360z" />
    <glyph glyph-name="x" unicode="x" horiz-adv-x="3028" 
d="M2878 0h-568l-836 558l-834 -558h-568l1118 750l-1118 750h568l834 -560l836 560h568l-1120 -750z" />
    <glyph glyph-name="y" unicode="y" 
d="M2026 962q0 -77 -29 -144q-30 -68 -80 -118q-51 -51 -119 -80q-68 -30 -144 -30h-408v-590h-318v590h-406q-77 0 -144 30q-68 29 -118 80q-51 50 -80 118q-30 67 -30 144v538h318v-538q0 -23 16 -38q15 -16 38 -16h1132q23 0 39 16q15 15 15 38v538h318v-538z" />
    <glyph glyph-name="z" unicode="z" horiz-adv-x="1958" 
d="M1808 0h-1658v318l1122 864h-1122v318h1658v-314l-1128 -870h1128v-316z" />
    <glyph glyph-name="braceleft" unicode="{" horiz-adv-x="1100" 
d="M950 -158h-200q-82 0 -154 31t-126 84q-54 54 -85 126q-31 71 -31 153v274h-204v318h204v274q0 82 31 155q31 72 85 126t126 86q72 31 154 31h200v-318h-200q-32 0 -55 -23q-23 -24 -23 -57v-866q0 -33 23 -56q23 -24 55 -24h200v-314z" />
    <glyph glyph-name="bar" unicode="|" horiz-adv-x="618" 
d="M468 -260h-318v1998h318v-1998z" />
    <glyph glyph-name="braceright" unicode="}" horiz-adv-x="1100" 
d="M950 510h-202v-274q0 -82 -31 -153q-32 -72 -86 -126q-54 -53 -126 -84q-73 -31 -155 -31h-200v314h200q33 0 57 24q23 23 23 56v866q0 33 -23 57q-24 23 -57 23h-200v318h200q82 0 155 -31q72 -32 126 -86t86 -126q31 -73 31 -155v-274h202v-318z" />
    <glyph glyph-name="asciitilde" unicode="~" horiz-adv-x="1930" 
d="M1780 1024l-266 -460q-38 -65 -100 -99q-63 -35 -134 -35t-134 36l-464 268l-166 -288h-366l282 488q38 65 101 100q62 34 133 34t134 -36l464 -268l150 260h366z" />
    <glyph glyph-name="uni00A0" unicode="&#xa0;" horiz-adv-x="950" 
 />
    <glyph glyph-name="exclamdown" unicode="&#xa1;" horiz-adv-x="618" 
d="M150 1300h318v-318h-318v318zM150 708h318v-906h-318v906z" />
    <glyph glyph-name="cent" unicode="&#xa2;" horiz-adv-x="1702" 
d="M1552 254h-462v-254h-318v254h-330q-60 0 -113 23t-93 63t-63 93t-23 113v406q0 60 23 113t63 93t93 63t113 23h328v258h322v-258h460v-318h-1084v-354h1084v-318z" />
    <glyph glyph-name="sterling" unicode="&#xa3;" horiz-adv-x="2264" 
d="M2114 0h-1724v634h-240v230h1180v-230h-622v-318h1406v-316zM2114 1182h-1716q13 67 49 126q35 58 86 101q51 42 116 67q64 24 135 24h1330v-318z" />
    <glyph glyph-name="currency" unicode="&#xa4;" horiz-adv-x="2338" 
d="M2188 0h-1410q-81 0 -152 31q-72 31 -126 84t-85 125q-31 71 -31 152v90h-234l132 230h102v74h-234l132 230h102v90q0 81 31 153q31 71 85 125t126 85q71 31 152 31h1410v-318h-1410q-32 0 -54 -22t-22 -54v-90h1290l-134 -230h-1156v-74h1114l-134 -230h-980v-90
q0 -30 22 -53t54 -23h1410v-316z" />
    <glyph glyph-name="yen" unicode="&#xa5;" horiz-adv-x="2072" 
d="M1922 482h-726v-482h-318v482h-728v230h366q-15 17 -28 36q-14 18 -26 38h-312v230h268v484h318v-538q0 -23 16 -38q15 -16 38 -16h492q23 0 39 16q15 15 15 38v538h318v-484h268v-230h-312q-22 -41 -52 -74h364v-230z" />
    <glyph glyph-name="brokenbar" unicode="&#xa6;" horiz-adv-x="618" 
d="M468 -260h-318v958h318v-958zM468 778h-318v960h318v-960z" />
    <glyph glyph-name="section" unicode="&#xa7;" horiz-adv-x="1056" 
d="M572 1530q-54 -29 -97 -71q-44 -43 -74 -94q-30 -52 -46 -110q-17 -58 -17 -119q0 -39 6 -78t20 -78l108 -316q24 -72 24 -146q0 -78 -25 -151t-70 -133q-45 -61 -107 -106q-63 -46 -138 -68l-6 14q55 29 98 72t73 95t46 111q15 58 15 120q0 77 -24 152l-108 316
q-24 75 -24 148q0 78 25 151q25 72 70 133q45 60 108 106q62 45 137 68zM906 1290q-54 -29 -97 -71q-44 -43 -74 -94q-30 -52 -46 -110q-17 -58 -17 -119q0 -39 5 -78t19 -78l110 -316q24 -72 24 -146q0 -78 -25 -150q-26 -73 -71 -134q-45 -60 -107 -105q-63 -45 -137 -67
l-6 14q55 29 98 71q43 43 73 95q30 51 46 110q15 58 15 120q0 38 -6 76t-20 76l-106 316q-24 75 -24 148q0 78 25 151q25 72 70 133q45 60 108 106q62 45 137 68z" />
    <glyph glyph-name="dieresis" unicode="&#xa8;" horiz-adv-x="862" 
d="M390 1570h-240v240h240v-240zM712 1570h-238v240h238v-240z" />
    <glyph glyph-name="copyright" unicode="&#xa9;" horiz-adv-x="1800" 
d="M1576 750q0 93 -24 179t-68 162q-45 75 -106 137q-62 61 -137 106q-76 44 -162 68t-179 24t-179 -24t-161 -68q-76 -45 -137 -106q-62 -62 -106 -137q-45 -76 -69 -162t-24 -179t24 -180t69 -162q44 -75 106 -137q61 -62 137 -106q75 -44 161 -68q86 -25 179 -25t179 24
t162 69q75 44 137 106q61 62 106 137q44 75 68 162zM1650 750q0 -103 -27 -199t-76 -179q-49 -84 -117 -152q-69 -69 -152 -117q-84 -49 -179 -76q-96 -27 -199 -27t-199 27t-179 76q-84 48 -152 117q-69 68 -117 152q-49 83 -76 179q-27 95 -27 199q0 103 27 199
q27 95 76 178q48 83 117 152q68 68 152 117q83 48 179 75q95 27 199 27q103 0 199 -27q95 -27 179 -75q83 -49 152 -117q68 -69 117 -152t76 -178zM1280 254h-550q-60 0 -113 23t-93 63t-63 93t-23 113v406q0 60 23 113t63 93t93 63t113 23h550v-318h-524v-354h524v-318z
" />
    <glyph glyph-name="ordfeminine" unicode="&#xaa;" horiz-adv-x="1352" 
d="M1202 860q0 -52 -19 -97q-20 -46 -54 -80t-79 -53q-46 -20 -98 -20h-552q-52 0 -97 20q-46 19 -80 53t-53 80q-20 45 -20 97v66q0 52 20 98q19 45 53 79t80 54q45 19 97 19h556v78h-806v246h802q52 0 98 -20q45 -20 79 -54t54 -79q19 -46 19 -97v-390zM394 932v-78h562
v78h-562zM150 314v246h1052v-250z" />
    <glyph glyph-name="guillemotleft" unicode="&#xab;" horiz-adv-x="1526" 
d="M1376 272h-382l-324 478l324 478h382l-324 -478zM856 272h-382l-324 478l324 478h382l-324 -478z" />
    <glyph glyph-name="logicalnot" unicode="&#xac;" horiz-adv-x="1486" 
d="M1336 908v-592h-316v274h-870v318h1186z" />
    <glyph glyph-name="uni00AD" unicode="&#xad;" horiz-adv-x="1486" 
d="M1336 590h-1186v318h1186v-318z" />
    <glyph glyph-name="registered" unicode="&#xae;" horiz-adv-x="1354" 
d="M1128 972q0 93 -35 175q-36 82 -97 144q-61 61 -143 97t-175 36q-94 0 -176 -36t-143 -97q-62 -62 -97 -144q-36 -82 -36 -175q0 -94 36 -176q35 -82 97 -143q61 -62 143 -97q82 -36 176 -36q104 0 195 45q90 44 153 119h-86l-586 312v36h558q12 0 21 9t9 21v46
q0 12 -9 21t-21 9h-558v122h558q31 0 59 -12t49 -32q20 -21 32 -49t12 -59v-46q0 -32 -12 -59q-12 -28 -32 -48q-21 -21 -49 -33t-59 -12h-144l304 -158q27 50 42 105zM1204 972q0 -109 -41 -205q-42 -96 -113 -168q-72 -72 -167 -113q-96 -42 -205 -42q-110 0 -206 42
q-96 41 -167 113q-72 72 -113 168q-42 96 -42 205t42 205q41 95 113 167q71 71 167 113q96 41 206 41q109 0 205 -41q95 -42 167 -113q71 -72 113 -167z" />
    <glyph glyph-name="macron" unicode="&#xaf;" horiz-adv-x="906" 
d="M756 1568h-606v162h606v-162z" />
    <glyph glyph-name="degree" unicode="&#xb0;" horiz-adv-x="1290" 
d="M912 924v358h-532v-358h532zM1140 916q0 -43 -16 -80q-17 -38 -45 -66q-29 -29 -67 -45q-39 -17 -82 -17h-570q-44 0 -82 17q-38 16 -66 45q-29 28 -45 66q-17 37 -17 80v374q0 43 17 81q16 38 45 67q28 28 66 45t82 17h570q43 0 82 -17q38 -17 67 -45q28 -29 45 -67
q16 -38 16 -81v-374z" />
    <glyph glyph-name="plusminus" unicode="&#xb1;" horiz-adv-x="1486" 
d="M1336 0h-1186v316h434v274h-434v318h434v434h318v-434h434v-318h-434v-274h434v-316z" />
    <glyph glyph-name="uni00B2" unicode="&#xb2;" horiz-adv-x="1242" 
d="M1092 1216q0 -47 -17 -88q-18 -41 -48 -71q-31 -31 -72 -49t-87 -18h-210q-85 -1 -140 -1q-56 -1 -86 -1h-43q-14 -1 -17 -2h-2v-64h722v-220h-942v284q0 46 18 87t49 72q30 30 71 48q40 17 86 17h494q2 0 4 2q2 1 2 4v58q0 3 -2 5q-2 1 -4 1h-718v220h718q46 0 87 -18
t72 -48q30 -31 48 -72q17 -42 17 -88v-58z" />
    <glyph glyph-name="uni00B3" unicode="&#xb3;" horiz-adv-x="1280" 
d="M1130 932q0 -47 -18 -89t-49 -73q-32 -32 -74 -50t-89 -18h-750v220h750q10 0 10 10v48q0 10 -10 10h-750v220h750q5 0 8 4q2 3 2 6v50q0 3 -2 7q-3 3 -8 3h-750v220h750q47 0 89 -18t74 -49q31 -32 49 -74t18 -89v-50q0 -64 -34 -120q34 -53 34 -120v-48z" />
    <glyph glyph-name="acute" unicode="&#xb4;" horiz-adv-x="1188" 
d="M1038 2004l-648 -432h-240l440 432h448z" />
    <glyph glyph-name="mu" unicode="&#xb5;" 
d="M2026 370q0 -77 -29 -144q-30 -67 -80 -117q-51 -51 -119 -80t-144 -29h-916q-86 0 -154 36q-69 36 -116 96v-370h-318v1738h318v-1130q0 -21 16 -37q15 -17 38 -17h1132q23 0 39 17q15 16 15 37v1130h318v-1130z" />
    <glyph glyph-name="paragraph" unicode="&#xb6;" horiz-adv-x="2104" 
d="M1954 1182h-1410q-32 0 -54 -22t-22 -54v-714q0 -30 22 -53t54 -23h612v592h318v-1146h-318v238h-612q-81 0 -152 31q-72 31 -126 84t-85 125q-31 71 -31 152v714q0 81 31 153q31 71 85 125t126 85q71 31 152 31h1410v-318zM1954 -238h-318v1146h318v-1146z" />
    <glyph glyph-name="periodcentered" unicode="&#xb7;" horiz-adv-x="618" 
d="M468 590h-318v318h318v-318z" />
    <glyph glyph-name="cedilla" unicode="&#xb8;" horiz-adv-x="842" 
d="M692 -322q0 -32 -12 -61q-13 -28 -34 -49q-22 -21 -50 -34q-29 -12 -60 -12h-386v190h350v52h-350v236h190v-46h196q31 0 59 -12t50 -33q21 -21 34 -49t13 -60v-122z" />
    <glyph glyph-name="uni00B9" unicode="&#xb9;" horiz-adv-x="840" 
d="M690 702h-218v572q0 3 -2 5q-2 1 -4 1h-316v220h316q46 0 87 -18t72 -48q30 -31 48 -72q17 -42 17 -88v-572z" />
    <glyph glyph-name="ordmasculine" unicode="&#xba;" horiz-adv-x="1396" 
d="M1246 862q0 -53 -20 -98q-20 -46 -54 -80q-35 -35 -81 -54q-47 -20 -99 -20h-588q-53 0 -99 20q-46 19 -80 54q-35 34 -55 80q-20 45 -20 98v386q0 52 20 98q20 45 55 80q34 34 80 54t99 20h588q52 0 99 -20q46 -20 81 -54q34 -35 54 -80q20 -46 20 -98v-386zM396 854
h604v400h-604v-400zM150 314v246h1098v-250z" />
    <glyph glyph-name="guillemotright" unicode="&#xbb;" horiz-adv-x="1526" 
d="M150 1228h382l324 -478l-324 -478h-382l324 478zM670 1228h382l324 -478l-324 -478h-382l324 478z" />
    <glyph glyph-name="onequarter" unicode="&#xbc;" horiz-adv-x="3290" 
d="M932 348h-318v826q0 8 -8 8h-456v318h456q67 0 127 -25q59 -26 104 -70q44 -45 70 -104q25 -60 25 -127v-826zM2164 1500l-968 -1500h-378l970 1500h376zM3140 0h-318v416h-1226l708 736h438l-402 -418h482v418h318v-1152z" />
    <glyph glyph-name="onehalf" unicode="&#xbd;" horiz-adv-x="3542" 
d="M932 348h-318v826q0 8 -8 8h-456v318h456q67 0 127 -25q59 -26 104 -70q44 -45 70 -104q25 -60 25 -127v-826zM2164 1500l-968 -1500h-378l970 1500h376zM3392 740q0 -67 -25 -126q-26 -59 -70 -103t-103 -69q-59 -26 -126 -26h-714q-2 0 -4 -1q-2 -2 -2 -5v-94h1044
v-316h-1362v410q0 67 26 126q25 59 69 103t103 70q59 25 126 25h714q3 0 6 2q2 2 2 4v86q0 8 -8 8h-1038v318h1038q67 0 126 -25q59 -26 103 -70q44 -45 70 -104q25 -60 25 -127v-86z" />
    <glyph glyph-name="threequarters" unicode="&#xbe;" horiz-adv-x="3808" 
d="M1566 680q0 -69 -26 -129q-26 -61 -71 -106t-105 -71q-61 -26 -130 -26h-1084v316h1084q6 0 11 5t5 11v70q0 6 -5 10t-11 4h-1084v318h1084q6 0 11 5q5 4 5 9v70q0 6 -5 11t-11 5h-1084v318h1084q69 0 130 -26q60 -27 105 -72t71 -106t26 -130v-70q0 -47 -12 -90
q-13 -44 -36 -82q23 -39 36 -82q12 -44 12 -92v-70zM2682 1500l-968 -1500h-376l968 1500h376zM3658 0h-318v416h-1226l708 736h440l-402 -418h480v418h318v-1152z" />
    <glyph glyph-name="questiondown" unicode="&#xbf;" horiz-adv-x="1858" 
d="M1030 1300h318v-318h-318v318zM150 270q0 80 31 152q30 71 83 125q52 54 122 86q70 31 150 31h804q-14 -68 -49 -126t-86 -100q-51 -43 -115 -67q-65 -25 -136 -25h-410q-32 0 -54 -22t-22 -54v-78q0 -30 22 -53t54 -23h1164v-314h-1164q-81 0 -152 31q-72 31 -126 84
t-85 124t-31 151v78z" />
    <glyph glyph-name="Agrave" unicode="&#xc0;" 
d="M1708 908v194q0 33 -23 57q-24 23 -57 23h-1082q-32 0 -55 -23q-23 -24 -23 -57v-194h1240zM2026 0h-318v590h-1240v-590h-318v1102q0 82 31 155q31 72 85 126t126 86q72 31 154 31h1082q82 0 155 -31q72 -32 126 -86t86 -126q31 -73 31 -155v-1102zM1092 2004l440 -432
h-240l-648 432h448z" />
    <glyph glyph-name="Aacute" unicode="&#xc1;" 
d="M1708 908v194q0 33 -23 57q-24 23 -57 23h-1082q-32 0 -55 -23q-23 -24 -23 -57v-194h1240zM2026 0h-318v590h-1240v-590h-318v1102q0 82 31 155q31 72 85 126t126 86q72 31 154 31h1082q82 0 155 -31q72 -32 126 -86t86 -126q31 -73 31 -155v-1102zM1532 2004l-648 -432
h-240l440 432h448z" />
    <glyph glyph-name="Acircumflex" unicode="&#xc2;" 
d="M1708 908v194q0 33 -23 57q-24 23 -57 23h-1082q-32 0 -55 -23q-23 -24 -23 -57v-194h1240zM2026 0h-318v590h-1240v-590h-318v1102q0 82 31 155q31 72 85 126t126 86q72 31 154 31h1082q82 0 155 -31q72 -32 126 -86t86 -126q31 -73 31 -155v-1102zM1586 1570h-270
l-230 230l-228 -230h-270l432 432h134z" />
    <glyph glyph-name="Atilde" unicode="&#xc3;" 
d="M1708 908v194q0 33 -23 57q-24 23 -57 23h-1082q-32 0 -55 -23q-23 -24 -23 -57v-194h1240zM2026 0h-318v590h-1240v-590h-318v1102q0 82 31 155q31 72 85 126t126 86q72 31 154 31h1082q82 0 155 -31q72 -32 126 -86t86 -126q31 -73 31 -155v-1102zM1604 1950l-154 -280
q-26 -48 -71 -74t-93 -26q-34 0 -72 16l-334 166l-100 -182h-210l154 280q26 47 71 73q45 25 93 25q18 0 36 -3q18 -4 36 -13l334 -166l100 184h210z" />
    <glyph glyph-name="Adieresis" unicode="&#xc4;" 
d="M1708 908v194q0 33 -23 57q-24 23 -57 23h-1082q-32 0 -55 -23q-23 -24 -23 -57v-194h1240zM2026 0h-318v590h-1240v-590h-318v1102q0 82 31 155q31 72 85 126t126 86q72 31 154 31h1082q82 0 155 -31q72 -32 126 -86t86 -126q31 -73 31 -155v-1102zM1046 1570h-240v240
h240v-240zM1368 1570h-238v240h238v-240z" />
    <glyph glyph-name="Aring" unicode="&#xc5;" 
d="M1708 908v194q0 33 -23 57q-24 23 -57 23h-1082q-32 0 -55 -23q-23 -24 -23 -57v-194h1240zM2026 0h-318v590h-1240v-590h-318v1102q0 82 31 155q31 72 85 126t126 86q72 31 154 31h1082q82 0 155 -31q72 -32 126 -86t86 -126q31 -73 31 -155v-1102zM1182 1822
q0 19 -7 37q-8 17 -20 30q-13 12 -30 20q-18 7 -37 7q-20 0 -37 -7q-17 -8 -29 -20q-13 -13 -20 -30q-8 -18 -8 -37q0 -20 8 -37q7 -17 20 -29q12 -13 29 -20q17 -8 37 -8q19 0 37 8q17 7 30 20q12 12 20 29zM1340 1822q0 -52 -20 -97q-20 -46 -54 -80q-35 -35 -80 -55
q-46 -20 -98 -20t-97 20q-46 20 -80 55q-35 34 -55 80q-20 45 -20 97t20 98q20 45 55 80q34 34 80 54q45 20 97 20t98 -20q45 -20 80 -54q34 -35 54 -80z" />
    <glyph glyph-name="AE" unicode="&#xc6;" horiz-adv-x="2718" 
d="M2568 0h-1260v590h-840v-590h-318v1102q0 82 31 155q31 72 85 126t126 86q72 31 154 31h2022v-318h-2022q-32 0 -55 -23q-23 -24 -23 -57v-194h2100v-318h-942v-274h942v-316z" />
    <glyph glyph-name="Ccedilla" unicode="&#xc7;" horiz-adv-x="2104" 
d="M1534 -322q0 -32 -12 -61q-13 -28 -34 -49q-22 -21 -50 -34q-29 -12 -60 -12h-386v190h350v52h-350v236h-448q-81 0 -152 31q-72 31 -126 84t-85 125q-31 71 -31 152v714q0 81 31 153q31 71 85 125t126 85q71 31 152 31h1410v-318h-1410q-32 0 -54 -22t-22 -54v-714
q0 -30 22 -53t54 -23h1410v-316h-772v-46h196q31 0 59 -12t50 -33q21 -21 34 -49t13 -60v-122z" />
    <glyph glyph-name="Egrave" unicode="&#xc8;" horiz-adv-x="2118" 
d="M1968 0h-1818v908h1818v-318h-1500v-274h1500v-316zM1968 1182h-1818v318h1818v-318zM1062 2004l440 -432h-240l-648 432h448z" />
    <glyph glyph-name="Eacute" unicode="&#xc9;" horiz-adv-x="2118" 
d="M1968 0h-1818v908h1818v-318h-1500v-274h1500v-316zM1968 1182h-1818v318h1818v-318zM1502 2004l-648 -432h-240l440 432h448z" />
    <glyph glyph-name="Ecircumflex" unicode="&#xca;" horiz-adv-x="2118" 
d="M1968 0h-1818v908h1818v-318h-1500v-274h1500v-316zM1968 1182h-1818v318h1818v-318zM1558 1570h-270l-230 230l-228 -230h-270l432 432h134z" />
    <glyph glyph-name="Edieresis" unicode="&#xcb;" horiz-adv-x="2118" 
d="M1968 0h-1818v908h1818v-318h-1500v-274h1500v-316zM1968 1182h-1818v318h1818v-318zM1018 1570h-240v240h240v-240zM1340 1570h-238v240h238v-240z" />
    <glyph glyph-name="Igrave" unicode="&#xcc;" horiz-adv-x="618" 
d="M468 0h-318v1500h318v-1500zM314 2004l440 -432h-240l-648 432h448z" />
    <glyph glyph-name="Iacute" unicode="&#xcd;" horiz-adv-x="618" 
d="M468 0h-318v1500h318v-1500zM754 2004l-648 -432h-240l440 432h448z" />
    <glyph glyph-name="Icircumflex" unicode="&#xce;" horiz-adv-x="618" 
d="M468 0h-318v1500h318v-1500zM808 1570h-270l-230 230l-228 -230h-270l432 432h134z" />
    <glyph glyph-name="Idieresis" unicode="&#xcf;" horiz-adv-x="618" 
d="M468 0h-318v1500h318v-1500zM268 1570h-240v240h240v-240zM590 1570h-238v240h238v-240z" />
    <glyph glyph-name="Eth" unicode="&#xd0;" horiz-adv-x="2368" 
d="M732 316h1092q32 0 54 23t22 53v714q0 32 -22 54t-54 22h-1410v318h1410q81 0 153 -31q71 -31 125 -85t85 -125q31 -72 31 -153v-714q0 -81 -31 -152q-31 -72 -85 -125t-125 -84q-72 -31 -153 -31h-1410v590h-264v318h846v-318h-264v-274z" />
    <glyph glyph-name="Ntilde" unicode="&#xd1;" 
d="M2026 0h-318v1094q0 18 -7 34t-19 28t-28 19t-34 7h-1470v318h1470q83 0 157 -32t130 -87q55 -56 87 -130t32 -157v-1094zM468 0h-318v908h318v-908zM1604 1950l-154 -280q-26 -48 -71 -74t-93 -26q-34 0 -72 16l-334 166l-100 -182h-210l154 280q26 47 71 73
q45 25 93 25q18 0 36 -3q18 -4 36 -13l334 -166l100 184h210z" />
    <glyph glyph-name="Ograve" unicode="&#xd2;" 
d="M2026 396q0 -82 -31 -154q-32 -72 -86 -126t-126 -85q-73 -31 -155 -31h-1082q-82 0 -154 31t-126 85t-85 126t-31 154v706q0 82 31 155q31 72 85 126t126 86q72 31 154 31h1082q82 0 155 -31q72 -32 126 -86t86 -126q31 -73 31 -155v-706zM1708 1102q0 33 -23 57
q-24 23 -57 23h-1082q-32 0 -55 -23q-23 -24 -23 -57v-706q0 -33 23 -56q23 -24 55 -24h1082q33 0 57 24q23 23 23 56v706zM1092 2004l440 -432h-240l-648 432h448z" />
    <glyph glyph-name="Oacute" unicode="&#xd3;" 
d="M2026 396q0 -82 -31 -154q-32 -72 -86 -126t-126 -85q-73 -31 -155 -31h-1082q-82 0 -154 31t-126 85t-85 126t-31 154v706q0 82 31 155q31 72 85 126t126 86q72 31 154 31h1082q82 0 155 -31q72 -32 126 -86t86 -126q31 -73 31 -155v-706zM1708 1102q0 33 -23 57
q-24 23 -57 23h-1082q-32 0 -55 -23q-23 -24 -23 -57v-706q0 -33 23 -56q23 -24 55 -24h1082q33 0 57 24q23 23 23 56v706zM1532 2004l-648 -432h-240l440 432h448z" />
    <glyph glyph-name="Ocircumflex" unicode="&#xd4;" 
d="M2026 396q0 -82 -31 -154q-32 -72 -86 -126t-126 -85q-73 -31 -155 -31h-1082q-82 0 -154 31t-126 85t-85 126t-31 154v706q0 82 31 155q31 72 85 126t126 86q72 31 154 31h1082q82 0 155 -31q72 -32 126 -86t86 -126q31 -73 31 -155v-706zM1708 1102q0 33 -23 57
q-24 23 -57 23h-1082q-32 0 -55 -23q-23 -24 -23 -57v-706q0 -33 23 -56q23 -24 55 -24h1082q33 0 57 24q23 23 23 56v706zM1586 1570h-270l-230 230l-228 -230h-270l432 432h134z" />
    <glyph glyph-name="Otilde" unicode="&#xd5;" 
d="M2026 396q0 -82 -31 -154q-32 -72 -86 -126t-126 -85q-73 -31 -155 -31h-1082q-82 0 -154 31t-126 85t-85 126t-31 154v706q0 82 31 155q31 72 85 126t126 86q72 31 154 31h1082q82 0 155 -31q72 -32 126 -86t86 -126q31 -73 31 -155v-706zM1708 1102q0 33 -23 57
q-24 23 -57 23h-1082q-32 0 -55 -23q-23 -24 -23 -57v-706q0 -33 23 -56q23 -24 55 -24h1082q33 0 57 24q23 23 23 56v706zM1604 1950l-154 -280q-26 -48 -71 -74t-93 -26q-34 0 -72 16l-334 166l-100 -182h-210l154 280q26 47 71 73q45 25 93 25q18 0 36 -3q18 -4 36 -13
l334 -166l100 184h210z" />
    <glyph glyph-name="Odieresis" unicode="&#xd6;" 
d="M2026 396q0 -82 -31 -154q-32 -72 -86 -126t-126 -85q-73 -31 -155 -31h-1082q-82 0 -154 31t-126 85t-85 126t-31 154v706q0 82 31 155q31 72 85 126t126 86q72 31 154 31h1082q82 0 155 -31q72 -32 126 -86t86 -126q31 -73 31 -155v-706zM1708 1102q0 33 -23 57
q-24 23 -57 23h-1082q-32 0 -55 -23q-23 -24 -23 -57v-706q0 -33 23 -56q23 -24 55 -24h1082q33 0 57 24q23 23 23 56v706zM1046 1570h-240v240h240v-240zM1368 1570h-238v240h238v-240z" />
    <glyph glyph-name="multiply" unicode="&#xd7;" horiz-adv-x="1364" 
d="M1214 442l-224 -224l-308 306l-308 -306l-224 224l308 308l-308 306l224 226l308 -308l308 308l224 -226l-308 -306z" />
    <glyph glyph-name="Oslash" unicode="&#xd8;" 
d="M2026 396q0 -82 -31 -154q-32 -72 -86 -126t-126 -85q-73 -31 -155 -31h-1082q-82 0 -154 31t-126 85t-85 126t-31 154v706q0 82 31 155q31 72 85 126t126 86q72 31 154 31h1082q82 0 155 -31q72 -32 126 -86t86 -126q31 -73 31 -155v-706zM1444 1182h-898q-32 0 -55 -23
q-23 -24 -23 -57v-716zM1708 1112l-976 -796h896q33 0 57 24q23 23 23 56v716z" />
    <glyph glyph-name="Ugrave" unicode="&#xd9;" 
d="M2026 370q0 -77 -29 -144q-30 -67 -80 -117q-51 -51 -119 -80t-144 -29h-1132q-77 0 -144 29q-68 29 -118 80q-51 50 -80 117q-30 67 -30 144v1130h318v-1130q0 -21 16 -37q15 -17 38 -17h1132q23 0 39 17q15 16 15 37v1130h318v-1130zM1092 2004l440 -432h-240l-648 432
h448z" />
    <glyph glyph-name="Uacute" unicode="&#xda;" 
d="M2026 370q0 -77 -29 -144q-30 -67 -80 -117q-51 -51 -119 -80t-144 -29h-1132q-77 0 -144 29q-68 29 -118 80q-51 50 -80 117q-30 67 -30 144v1130h318v-1130q0 -21 16 -37q15 -17 38 -17h1132q23 0 39 17q15 16 15 37v1130h318v-1130zM1532 2004l-648 -432h-240l440 432
h448z" />
    <glyph glyph-name="Ucircumflex" unicode="&#xdb;" 
d="M2026 370q0 -77 -29 -144q-30 -67 -80 -117q-51 -51 -119 -80t-144 -29h-1132q-77 0 -144 29q-68 29 -118 80q-51 50 -80 117q-30 67 -30 144v1130h318v-1130q0 -21 16 -37q15 -17 38 -17h1132q23 0 39 17q15 16 15 37v1130h318v-1130zM1586 1570h-270l-230 230
l-228 -230h-270l432 432h134z" />
    <glyph glyph-name="Udieresis" unicode="&#xdc;" 
d="M2026 370q0 -77 -29 -144q-30 -67 -80 -117q-51 -51 -119 -80t-144 -29h-1132q-77 0 -144 29q-68 29 -118 80q-51 50 -80 117q-30 67 -30 144v1130h318v-1130q0 -21 16 -37q15 -17 38 -17h1132q23 0 39 17q15 16 15 37v1130h318v-1130zM1046 1570h-240v240h240v-240z
M1368 1570h-238v240h238v-240z" />
    <glyph glyph-name="Yacute" unicode="&#xdd;" 
d="M2026 962q0 -77 -29 -144q-30 -68 -80 -118q-51 -51 -119 -80q-68 -30 -144 -30h-408v-590h-318v590h-406q-77 0 -144 30q-68 29 -118 80q-51 50 -80 118q-30 67 -30 144v538h318v-538q0 -23 16 -38q15 -16 38 -16h1132q23 0 39 16q15 15 15 38v538h318v-538zM1532 2004
l-648 -432h-240l440 432h448z" />
    <glyph glyph-name="Thorn" unicode="&#xde;" horiz-adv-x="2152" 
d="M2002 688q0 -81 -31 -152q-31 -72 -85 -126t-125 -85q-72 -31 -153 -31h-1140v-294h-318v1500h318v-296h1140q81 0 153 -31q71 -31 125 -85t85 -125q31 -72 31 -153v-122zM1684 810q0 32 -23 54t-53 22h-1140v-274h1140q30 0 53 22t23 54v122z" />
    <glyph glyph-name="germandbls" unicode="&#xdf;" 
d="M2026 404q0 -83 -32 -156q-32 -74 -87 -129q-56 -55 -130 -87t-157 -32h-1470v1500h1636v-160q0 -121 -37 -230q-37 -110 -103 -202q79 -5 149 -39q69 -34 121 -88q51 -55 81 -126q29 -72 29 -151v-100zM1708 504q0 17 -7 33q-7 15 -19 27t-28 19t-34 7h-894v318h310
q66 0 128 20q62 19 115 55q52 36 93 87q41 50 66 112h-970v-866h1152q18 0 34 7t28 19t19 28t7 34v100z" />
    <glyph glyph-name="agrave" unicode="&#xe0;" 
d="M1708 908v194q0 33 -23 57q-24 23 -57 23h-1082q-32 0 -55 -23q-23 -24 -23 -57v-194h1240zM2026 0h-318v590h-1240v-590h-318v1102q0 82 31 155q31 72 85 126t126 86q72 31 154 31h1082q82 0 155 -31q72 -32 126 -86t86 -126q31 -73 31 -155v-1102zM1092 2004l440 -432
h-240l-648 432h448z" />
    <glyph glyph-name="aacute" unicode="&#xe1;" 
d="M1708 908v194q0 33 -23 57q-24 23 -57 23h-1082q-32 0 -55 -23q-23 -24 -23 -57v-194h1240zM2026 0h-318v590h-1240v-590h-318v1102q0 82 31 155q31 72 85 126t126 86q72 31 154 31h1082q82 0 155 -31q72 -32 126 -86t86 -126q31 -73 31 -155v-1102zM1532 2004l-648 -432
h-240l440 432h448z" />
    <glyph glyph-name="acircumflex" unicode="&#xe2;" 
d="M1708 908v194q0 33 -23 57q-24 23 -57 23h-1082q-32 0 -55 -23q-23 -24 -23 -57v-194h1240zM2026 0h-318v590h-1240v-590h-318v1102q0 82 31 155q31 72 85 126t126 86q72 31 154 31h1082q82 0 155 -31q72 -32 126 -86t86 -126q31 -73 31 -155v-1102zM1586 1570h-270
l-230 230l-228 -230h-270l432 432h134z" />
    <glyph glyph-name="atilde" unicode="&#xe3;" 
d="M1708 908v194q0 33 -23 57q-24 23 -57 23h-1082q-32 0 -55 -23q-23 -24 -23 -57v-194h1240zM2026 0h-318v590h-1240v-590h-318v1102q0 82 31 155q31 72 85 126t126 86q72 31 154 31h1082q82 0 155 -31q72 -32 126 -86t86 -126q31 -73 31 -155v-1102zM1604 1950l-154 -280
q-26 -48 -71 -74t-93 -26q-34 0 -72 16l-334 166l-100 -182h-210l154 280q26 47 71 73q45 25 93 25q18 0 36 -3q18 -4 36 -13l334 -166l100 184h210z" />
    <glyph glyph-name="adieresis" unicode="&#xe4;" 
d="M1708 908v194q0 33 -23 57q-24 23 -57 23h-1082q-32 0 -55 -23q-23 -24 -23 -57v-194h1240zM2026 0h-318v590h-1240v-590h-318v1102q0 82 31 155q31 72 85 126t126 86q72 31 154 31h1082q82 0 155 -31q72 -32 126 -86t86 -126q31 -73 31 -155v-1102zM1046 1570h-240v240
h240v-240zM1368 1570h-238v240h238v-240z" />
    <glyph glyph-name="aring" unicode="&#xe5;" 
d="M1708 908v194q0 33 -23 57q-24 23 -57 23h-1082q-32 0 -55 -23q-23 -24 -23 -57v-194h1240zM2026 0h-318v590h-1240v-590h-318v1102q0 82 31 155q31 72 85 126t126 86q72 31 154 31h1082q82 0 155 -31q72 -32 126 -86t86 -126q31 -73 31 -155v-1102zM1182 1822
q0 19 -7 37q-8 17 -20 30q-13 12 -30 20q-18 7 -37 7q-20 0 -37 -7q-17 -8 -29 -20q-13 -13 -20 -30q-8 -18 -8 -37q0 -20 8 -37q7 -17 20 -29q12 -13 29 -20q17 -8 37 -8q19 0 37 8q17 7 30 20q12 12 20 29zM1340 1822q0 -52 -20 -97q-20 -46 -54 -80q-35 -35 -80 -55
q-46 -20 -98 -20t-97 20q-46 20 -80 55q-35 34 -55 80q-20 45 -20 97t20 98q20 45 55 80q34 34 80 54q45 20 97 20t98 -20q45 -20 80 -54q34 -35 54 -80z" />
    <glyph glyph-name="ae" unicode="&#xe6;" horiz-adv-x="2718" 
d="M2568 0h-1260v590h-840v-590h-318v1102q0 82 31 155q31 72 85 126t126 86q72 31 154 31h2022v-318h-2022q-32 0 -55 -23q-23 -24 -23 -57v-194h2100v-318h-942v-274h942v-316z" />
    <glyph glyph-name="ccedilla" unicode="&#xe7;" horiz-adv-x="2104" 
d="M1534 -322q0 -32 -12 -61q-13 -28 -34 -49q-22 -21 -50 -34q-29 -12 -60 -12h-386v190h350v52h-350v236h-448q-81 0 -152 31q-72 31 -126 84t-85 125q-31 71 -31 152v714q0 81 31 153q31 71 85 125t126 85q71 31 152 31h1410v-318h-1410q-32 0 -54 -22t-22 -54v-714
q0 -30 22 -53t54 -23h1410v-316h-772v-46h196q31 0 59 -12t50 -33q21 -21 34 -49t13 -60v-122z" />
    <glyph glyph-name="egrave" unicode="&#xe8;" horiz-adv-x="2118" 
d="M1968 0h-1818v908h1818v-318h-1500v-274h1500v-316zM1968 1182h-1818v318h1818v-318zM1062 2004l440 -432h-240l-648 432h448z" />
    <glyph glyph-name="eacute" unicode="&#xe9;" horiz-adv-x="2118" 
d="M1968 0h-1818v908h1818v-318h-1500v-274h1500v-316zM1968 1182h-1818v318h1818v-318zM1502 2004l-648 -432h-240l440 432h448z" />
    <glyph glyph-name="ecircumflex" unicode="&#xea;" horiz-adv-x="2118" 
d="M1968 0h-1818v908h1818v-318h-1500v-274h1500v-316zM1968 1182h-1818v318h1818v-318zM1558 1570h-270l-230 230l-228 -230h-270l432 432h134z" />
    <glyph glyph-name="edieresis" unicode="&#xeb;" horiz-adv-x="2118" 
d="M1968 0h-1818v908h1818v-318h-1500v-274h1500v-316zM1968 1182h-1818v318h1818v-318zM1018 1570h-240v240h240v-240zM1340 1570h-238v240h238v-240z" />
    <glyph glyph-name="igrave" unicode="&#xec;" horiz-adv-x="618" 
d="M468 0h-318v1500h318v-1500zM314 2004l440 -432h-240l-648 432h448z" />
    <glyph glyph-name="iacute" unicode="&#xed;" horiz-adv-x="618" 
d="M468 0h-318v1500h318v-1500zM754 2004l-648 -432h-240l440 432h448z" />
    <glyph glyph-name="icircumflex" unicode="&#xee;" horiz-adv-x="618" 
d="M468 0h-318v1500h318v-1500zM808 1570h-270l-230 230l-228 -230h-270l432 432h134z" />
    <glyph glyph-name="idieresis" unicode="&#xef;" horiz-adv-x="618" 
d="M468 0h-318v1500h318v-1500zM268 1570h-240v240h240v-240zM590 1570h-238v240h238v-240z" />
    <glyph glyph-name="eth" unicode="&#xf0;" horiz-adv-x="2368" 
d="M732 316h1092q32 0 54 23t22 53v714q0 32 -22 54t-54 22h-1410v318h1410q81 0 153 -31q71 -31 125 -85t85 -125q31 -72 31 -153v-714q0 -81 -31 -152q-31 -72 -85 -125t-125 -84q-72 -31 -153 -31h-1410v590h-264v318h846v-318h-264v-274z" />
    <glyph glyph-name="ntilde" unicode="&#xf1;" 
d="M2026 0h-318v1094q0 18 -7 34t-19 28t-28 19t-34 7h-1470v318h1470q83 0 157 -32t130 -87q55 -56 87 -130t32 -157v-1094zM468 0h-318v908h318v-908zM1604 1950l-154 -280q-26 -48 -71 -74t-93 -26q-34 0 -72 16l-334 166l-100 -182h-210l154 280q26 47 71 73
q45 25 93 25q18 0 36 -3q18 -4 36 -13l334 -166l100 184h210z" />
    <glyph glyph-name="ograve" unicode="&#xf2;" 
d="M2026 396q0 -82 -31 -154q-32 -72 -86 -126t-126 -85q-73 -31 -155 -31h-1082q-82 0 -154 31t-126 85t-85 126t-31 154v706q0 82 31 155q31 72 85 126t126 86q72 31 154 31h1082q82 0 155 -31q72 -32 126 -86t86 -126q31 -73 31 -155v-706zM1708 1102q0 33 -23 57
q-24 23 -57 23h-1082q-32 0 -55 -23q-23 -24 -23 -57v-706q0 -33 23 -56q23 -24 55 -24h1082q33 0 57 24q23 23 23 56v706zM1092 2004l440 -432h-240l-648 432h448z" />
    <glyph glyph-name="oacute" unicode="&#xf3;" 
d="M2026 396q0 -82 -31 -154q-32 -72 -86 -126t-126 -85q-73 -31 -155 -31h-1082q-82 0 -154 31t-126 85t-85 126t-31 154v706q0 82 31 155q31 72 85 126t126 86q72 31 154 31h1082q82 0 155 -31q72 -32 126 -86t86 -126q31 -73 31 -155v-706zM1708 1102q0 33 -23 57
q-24 23 -57 23h-1082q-32 0 -55 -23q-23 -24 -23 -57v-706q0 -33 23 -56q23 -24 55 -24h1082q33 0 57 24q23 23 23 56v706zM1532 2004l-648 -432h-240l440 432h448z" />
    <glyph glyph-name="ocircumflex" unicode="&#xf4;" 
d="M2026 396q0 -82 -31 -154q-32 -72 -86 -126t-126 -85q-73 -31 -155 -31h-1082q-82 0 -154 31t-126 85t-85 126t-31 154v706q0 82 31 155q31 72 85 126t126 86q72 31 154 31h1082q82 0 155 -31q72 -32 126 -86t86 -126q31 -73 31 -155v-706zM1708 1102q0 33 -23 57
q-24 23 -57 23h-1082q-32 0 -55 -23q-23 -24 -23 -57v-706q0 -33 23 -56q23 -24 55 -24h1082q33 0 57 24q23 23 23 56v706zM1586 1570h-270l-230 230l-228 -230h-270l432 432h134z" />
    <glyph glyph-name="otilde" unicode="&#xf5;" 
d="M2026 396q0 -82 -31 -154q-32 -72 -86 -126t-126 -85q-73 -31 -155 -31h-1082q-82 0 -154 31t-126 85t-85 126t-31 154v706q0 82 31 155q31 72 85 126t126 86q72 31 154 31h1082q82 0 155 -31q72 -32 126 -86t86 -126q31 -73 31 -155v-706zM1708 1102q0 33 -23 57
q-24 23 -57 23h-1082q-32 0 -55 -23q-23 -24 -23 -57v-706q0 -33 23 -56q23 -24 55 -24h1082q33 0 57 24q23 23 23 56v706zM1604 1950l-154 -280q-26 -48 -71 -74t-93 -26q-34 0 -72 16l-334 166l-100 -182h-210l154 280q26 47 71 73q45 25 93 25q18 0 36 -3q18 -4 36 -13
l334 -166l100 184h210z" />
    <glyph glyph-name="odieresis" unicode="&#xf6;" 
d="M2026 396q0 -82 -31 -154q-32 -72 -86 -126t-126 -85q-73 -31 -155 -31h-1082q-82 0 -154 31t-126 85t-85 126t-31 154v706q0 82 31 155q31 72 85 126t126 86q72 31 154 31h1082q82 0 155 -31q72 -32 126 -86t86 -126q31 -73 31 -155v-706zM1708 1102q0 33 -23 57
q-24 23 -57 23h-1082q-32 0 -55 -23q-23 -24 -23 -57v-706q0 -33 23 -56q23 -24 55 -24h1082q33 0 57 24q23 23 23 56v706zM1046 1570h-240v240h240v-240zM1368 1570h-238v240h238v-240z" />
    <glyph glyph-name="divide" unicode="&#xf7;" horiz-adv-x="1486" 
d="M1336 908v-318h-1186v318h1186zM744 1406q42 0 79 -16t65 -44t44 -65t16 -79q0 -43 -16 -80q-16 -38 -44 -66t-65 -44t-79 -16q-43 0 -80 16q-38 16 -66 44t-44 66q-16 37 -16 80q0 42 16 79t44 65t66 44zM744 502q42 0 79 -16t65 -44t44 -65q16 -38 16 -81
q0 -42 -16 -79t-44 -65t-65 -44t-79 -16q-43 0 -80 16q-38 16 -66 44t-44 65t-16 79q0 43 16 81q16 37 44 65t66 44z" />
    <glyph glyph-name="oslash" unicode="&#xf8;" 
d="M2026 396q0 -82 -31 -154q-32 -72 -86 -126t-126 -85q-73 -31 -155 -31h-1082q-82 0 -154 31t-126 85t-85 126t-31 154v706q0 82 31 155q31 72 85 126t126 86q72 31 154 31h1082q82 0 155 -31q72 -32 126 -86t86 -126q31 -73 31 -155v-706zM1444 1182h-898q-32 0 -55 -23
q-23 -24 -23 -57v-716zM1708 1112l-976 -796h896q33 0 57 24q23 23 23 56v716z" />
    <glyph glyph-name="ugrave" unicode="&#xf9;" 
d="M2026 370q0 -77 -29 -144q-30 -67 -80 -117q-51 -51 -119 -80t-144 -29h-1132q-77 0 -144 29q-68 29 -118 80q-51 50 -80 117q-30 67 -30 144v1130h318v-1130q0 -21 16 -37q15 -17 38 -17h1132q23 0 39 17q15 16 15 37v1130h318v-1130zM1092 2004l440 -432h-240l-648 432
h448z" />
    <glyph glyph-name="uacute" unicode="&#xfa;" 
d="M2026 370q0 -77 -29 -144q-30 -67 -80 -117q-51 -51 -119 -80t-144 -29h-1132q-77 0 -144 29q-68 29 -118 80q-51 50 -80 117q-30 67 -30 144v1130h318v-1130q0 -21 16 -37q15 -17 38 -17h1132q23 0 39 17q15 16 15 37v1130h318v-1130zM1532 2004l-648 -432h-240l440 432
h448z" />
    <glyph glyph-name="ucircumflex" unicode="&#xfb;" 
d="M2026 370q0 -77 -29 -144q-30 -67 -80 -117q-51 -51 -119 -80t-144 -29h-1132q-77 0 -144 29q-68 29 -118 80q-51 50 -80 117q-30 67 -30 144v1130h318v-1130q0 -21 16 -37q15 -17 38 -17h1132q23 0 39 17q15 16 15 37v1130h318v-1130zM1586 1570h-270l-230 230
l-228 -230h-270l432 432h134z" />
    <glyph glyph-name="udieresis" unicode="&#xfc;" 
d="M2026 370q0 -77 -29 -144q-30 -67 -80 -117q-51 -51 -119 -80t-144 -29h-1132q-77 0 -144 29q-68 29 -118 80q-51 50 -80 117q-30 67 -30 144v1130h318v-1130q0 -21 16 -37q15 -17 38 -17h1132q23 0 39 17q15 16 15 37v1130h318v-1130zM1046 1570h-240v240h240v-240z
M1368 1570h-238v240h238v-240z" />
    <glyph glyph-name="yacute" unicode="&#xfd;" 
d="M2026 962q0 -77 -29 -144q-30 -68 -80 -118q-51 -51 -119 -80q-68 -30 -144 -30h-408v-590h-318v590h-406q-77 0 -144 30q-68 29 -118 80q-51 50 -80 118q-30 67 -30 144v538h318v-538q0 -23 16 -38q15 -16 38 -16h1132q23 0 39 16q15 15 15 38v538h318v-538zM1532 2004
l-648 -432h-240l440 432h448z" />
    <glyph glyph-name="thorn" unicode="&#xfe;" horiz-adv-x="2152" 
d="M2002 688q0 -81 -31 -152q-31 -72 -85 -126t-125 -85q-72 -31 -153 -31h-1140v-294h-318v1500h318v-296h1140q81 0 153 -31q71 -31 125 -85t85 -125q31 -72 31 -153v-122zM1684 810q0 32 -23 54t-53 22h-1140v-274h1140q30 0 53 22t23 54v122z" />
    <glyph glyph-name="ydieresis" unicode="&#xff;" 
d="M2026 962q0 -77 -29 -144q-30 -68 -80 -118q-51 -51 -119 -80q-68 -30 -144 -30h-408v-590h-318v590h-406q-77 0 -144 30q-68 29 -118 80q-51 50 -80 118q-30 67 -30 144v538h318v-538q0 -23 16 -38q15 -16 38 -16h1132q23 0 39 16q15 15 15 38v538h318v-538zM1046 1570
h-240v240h240v-240zM1368 1570h-238v240h238v-240z" />
    <glyph glyph-name="dotlessi" unicode="&#x131;" horiz-adv-x="618" 
d="M468 0h-318v1500h318v-1500z" />
    <glyph glyph-name="OE" unicode="&#x152;" horiz-adv-x="2822" 
d="M2672 0h-2126q-82 0 -154 31t-126 85t-85 126t-31 154v512h318v-512q0 -33 23 -56q23 -24 55 -24h788v592h1338v-318h-1020v-274h1020v-316zM2672 1182h-2514q14 67 50 126q36 58 87 101q51 42 116 67q64 24 135 24h2126v-318z" />
    <glyph glyph-name="oe" unicode="&#x153;" horiz-adv-x="2822" 
d="M2672 0h-2126q-82 0 -154 31t-126 85t-85 126t-31 154v512h318v-512q0 -33 23 -56q23 -24 55 -24h788v592h1338v-318h-1020v-274h1020v-316zM2672 1182h-2514q14 67 50 126q36 58 87 101q51 42 116 67q64 24 135 24h2126v-318z" />
    <glyph glyph-name="Scaron" unicode="&#x160;" horiz-adv-x="2098" 
d="M1948 392q0 -81 -31 -152q-31 -72 -85 -125t-125 -84q-72 -31 -153 -31h-1404v316h1404q32 0 54 22t22 54v122q0 32 -22 54t-54 22h-1010q-81 0 -152 31q-72 31 -126 85t-85 126q-31 71 -31 152v122q0 81 31 153q31 71 85 125t126 85q71 31 152 31h1404v-318h-1404
q-32 0 -54 -22t-22 -54v-122q0 -32 22 -54t54 -22h1010q81 0 153 -31q71 -31 125 -85t85 -125q31 -72 31 -153v-122zM982 1570l-432 432h270l228 -230l230 230h270l-432 -432h-134z" />
    <glyph glyph-name="scaron" unicode="&#x161;" horiz-adv-x="2098" 
d="M1948 392q0 -81 -31 -152q-31 -72 -85 -125t-125 -84q-72 -31 -153 -31h-1404v316h1404q32 0 54 22t22 54v122q0 32 -22 54t-54 22h-1010q-81 0 -152 31q-72 31 -126 85t-85 126q-31 71 -31 152v122q0 81 31 153q31 71 85 125t126 85q71 31 152 31h1404v-318h-1404
q-32 0 -54 -22t-22 -54v-122q0 -32 22 -54t54 -22h1010q81 0 153 -31q71 -31 125 -85t85 -125q31 -72 31 -153v-122zM982 1570l-432 432h270l228 -230l230 230h270l-432 -432h-134z" />
    <glyph glyph-name="Ydieresis" unicode="&#x178;" 
d="M2026 962q0 -77 -29 -144q-30 -68 -80 -118q-51 -51 -119 -80q-68 -30 -144 -30h-408v-590h-318v590h-406q-77 0 -144 30q-68 29 -118 80q-51 50 -80 118q-30 67 -30 144v538h318v-538q0 -23 16 -38q15 -16 38 -16h1132q23 0 39 16q15 15 15 38v538h318v-538zM1046 1570
h-240v240h240v-240zM1368 1570h-238v240h238v-240z" />
    <glyph glyph-name="Zcaron" unicode="&#x17d;" horiz-adv-x="1958" 
d="M1808 0h-1658v318l1122 864h-1122v318h1658v-314l-1128 -870h1128v-316zM912 1570l-432 432h270l228 -230l230 230h270l-432 -432h-134z" />
    <glyph glyph-name="zcaron" unicode="&#x17e;" horiz-adv-x="1958" 
d="M1808 0h-1658v318l1122 864h-1122v318h1658v-314l-1128 -870h1128v-316zM912 1570l-432 432h270l228 -230l230 230h270l-432 -432h-134z" />
    <glyph glyph-name="florin" unicode="&#x192;" horiz-adv-x="2010" 
d="M1670 174q-56 -56 -130 -88q-75 -32 -156 -32q-41 -24 -88 -36q-48 -12 -98 -12h-26q-38 -17 -79 -28q-41 -10 -85 -10q-47 0 -89 10q-43 11 -81 28h-24q-50 0 -98 12t-90 36q-80 0 -155 32q-76 32 -129 88q-39 28 -74 62t-61 74t-41 85q-16 45 -16 95q0 75 34 140
q33 64 86 114q-26 51 -40 106q-14 54 -14 108q0 81 28 156q28 74 79 139t123 119q72 53 160 92q88 38 190 59q101 21 212 21q109 0 210 -21t189 -59q88 -39 161 -92q72 -54 124 -119q51 -65 80 -140q28 -75 28 -155q0 -54 -16 -108q-17 -55 -44 -106q53 -50 87 -114
q33 -65 33 -140q0 -50 -15 -95q-16 -45 -42 -85t-60 -74zM1456 106q51 10 97 35q45 25 80 62q34 37 55 85q20 47 20 102q0 45 -13 86q-14 41 -43 76q-2 8 -4 11q-2 2 -2 7q0 8 8 15q7 7 16 7q3 0 8 -3t10 -9q30 -41 46 -89t16 -101q0 -24 -2 -48q-2 -25 -10 -46q36 39 59 88
t23 106q0 69 -35 129q-36 60 -87 105q0 2 -1 7q-1 4 -1 9q0 3 1 5t1 5q27 50 40 102q12 52 12 106q0 74 -27 144q-27 69 -75 129q-49 60 -117 110q-68 49 -150 85q-83 35 -177 55q-95 19 -196 19q-155 0 -291 -43t-237 -117q-102 -74 -161 -172q-59 -99 -59 -210
q0 -28 9 -62q9 -35 20 -66q11 -32 20 -55q9 -24 9 -31v-13q-1 -5 -6 -7q-50 -45 -84 -105t-34 -129q0 -57 22 -106q21 -49 56 -88q-5 21 -7 46q-3 24 -3 48q0 53 16 101t48 89q3 6 8 9t8 3q8 0 16 -7t8 -15q0 -5 -1 -7q-2 -3 -7 -11q-29 -35 -41 -76q-13 -41 -13 -86
q0 -55 20 -102q20 -48 55 -85q34 -37 80 -62q45 -25 97 -35q-50 44 -80 105q-30 60 -30 129q0 56 19 107t55 95q10 10 18 10t16 -6q8 -7 8 -18q0 -3 -3 -5t-9 -7q-29 -36 -44 -82q-16 -46 -16 -94q0 -58 22 -107t60 -86q37 -38 87 -62q49 -24 105 -31q-57 44 -90 109
q-34 65 -34 143q0 9 6 16q6 6 14 6q9 0 16 -6q6 -7 6 -16q0 -66 28 -120q27 -54 73 -93q45 -39 104 -60t121 -21q61 0 119 21t103 60t73 93q27 54 27 120q0 9 7 16q7 6 15 6t14 -6q6 -7 6 -16q0 -78 -34 -143t-90 -109q55 7 105 31q49 24 87 62q37 37 60 86q22 49 22 107
q0 48 -16 94t-46 82q-3 5 -3 7q-1 2 -1 5q0 11 5 18q5 6 13 6q11 0 18 -10q35 -44 55 -95q19 -51 19 -107q0 -69 -30 -129zM1130 868v-30q8 2 15 2h17q24 0 49 -5t46 -15q21 -11 36 -27q14 -17 17 -41q24 9 54 14q30 4 60 4q34 0 66 -8q32 -9 58 -26q25 -18 41 -44
q15 -26 15 -60q0 -11 -3 -25t-8 -26q-6 -12 -13 -20q-8 -9 -16 -9t-16 7t-8 15t10 22q10 13 10 36q0 41 -33 67q-33 25 -83 25q-53 0 -94 -14q-42 -14 -71 -34q-30 -21 -45 -45q-16 -24 -16 -43q0 -13 3 -25t13 -21t28 -14q18 -6 48 -6q17 0 37 5q19 5 37 5q20 0 20 -26
q-3 -33 -21 -63q-18 -31 -47 -55q-30 -24 -68 -38q-39 -14 -82 -14q-50 0 -99 19t-79 57q-35 -38 -82 -57q-48 -19 -98 -19q-41 0 -79 13t-68 36t-50 54t-25 67q0 12 7 19q6 7 17 7q17 -6 36 -8q18 -2 38 -2q30 0 48 6q18 5 28 14t13 21t3 25q0 19 -16 43q-16 23 -46 44
t-73 35t-97 14q-47 0 -79 -25q-33 -26 -33 -67q0 -21 9 -33t9 -25q0 -8 -6 -15t-14 -7q-9 0 -16 9q-8 8 -14 20t-9 26t-3 25q0 34 15 60t41 44q25 17 59 26q33 8 69 8q26 0 57 -4q31 -5 55 -14q2 24 17 41q14 16 35 27q21 10 45 15t45 5h19q9 0 21 -2q-2 8 -2 18v20
q0 28 3 53q2 24 7 42q4 18 10 29q5 10 12 10q15 0 24 -26q8 -26 14 -68l-40 -48h42q0 -15 -1 -30q-2 -16 -5 -30q18 -9 28 -26q10 -18 10 -38q0 -39 -20 -59t-44 -32l-44 -22q-20 -11 -20 -31t15 -34t38 -23q22 -9 48 -13q25 -4 47 -4t47 4t47 13q21 9 36 23q14 14 14 34
q0 14 -9 23q-10 8 -24 16q-15 7 -32 15q-17 7 -31 18q-15 11 -24 28q-10 17 -10 44q0 20 11 38q11 17 31 26q-5 14 -6 31q-2 16 -2 37q0 28 3 53q3 24 9 42q5 18 12 29q6 10 14 10q15 0 26 -40l10 -54l-42 -48h42zM1160 528q-17 -12 -36 -20q-20 -9 -40 -14q-21 -5 -40 -7
q-20 -3 -36 -3q-35 0 -78 10t-72 34q-35 -24 -75 -38q-41 -14 -79 -14q-14 0 -24 1q-11 1 -22 3q21 -50 69 -75q47 -25 101 -25q45 0 90 20q44 19 70 60q5 8 9 9q3 1 11 1q3 0 9 -1t9 -9q23 -41 68 -60q44 -20 92 -20q25 0 51 7q25 6 48 19q22 12 40 31q18 18 27 43
q-8 -2 -19 -3q-12 -1 -23 -1q-41 0 -80 14zM846 816q-24 0 -45 -6q-21 -7 -37 -17q-16 -11 -25 -23q-9 -13 -9 -26q0 -32 33 -54t83 -22q53 0 85 23q31 23 31 53q0 11 -8 24q-9 13 -24 24q-16 10 -37 17zM1168 816q-22 0 -43 -6t-37 -16q-17 -11 -27 -24q-11 -13 -11 -26
q0 -17 10 -31q9 -14 26 -24q16 -10 38 -15q21 -6 44 -6t44 6t37 17q15 10 24 24t9 29q0 11 -9 24t-24 24q-16 10 -37 17zM838 1140q-57 -14 -105 -33q-49 -20 -85 -48q-36 -29 -56 -67q-20 -39 -20 -90q0 -15 2 -30t2 -36q0 -11 -6 -15q-6 -5 -14 -5q-11 0 -16 10
q-6 9 -8 23q-3 13 -3 28q-1 14 -1 25q0 74 29 142q28 68 81 124q-41 23 -72 61q-32 38 -44 83v10q0 8 8 13t14 5q5 0 12 -3q6 -4 8 -15q9 -34 30 -61t50 -46q28 -20 62 -30q33 -11 68 -11q32 0 64 9t60 26q27 17 48 43q21 25 32 58q3 12 20 12q8 0 14 -3t8 -9q10 -33 31 -58
q21 -26 48 -43t58 -26t63 -9q34 0 69 11q34 10 63 30q28 19 49 46q20 27 27 61q3 11 11 15q7 3 13 3q8 0 14 -5t6 -13v-10q-9 -44 -36 -79t-66 -59q54 -56 84 -125t30 -147v-14v-24q-1 -13 -4 -23q-3 -11 -8 -18q-6 -7 -16 -7q-9 0 -16 5q-8 5 -8 19q3 18 7 33q3 15 3 29
q0 54 -17 94q-18 39 -49 67q-32 28 -74 45q-43 17 -92 26q-32 5 -62 14q-31 8 -58 22q-28 13 -51 33q-24 20 -41 49q-27 -44 -68 -73z" />
    <glyph glyph-name="circumflex" unicode="&#x2c6;" horiz-adv-x="1346" 
d="M1172 1570h-270l-230 230l-228 -230h-270l432 432h134z" />
    <glyph glyph-name="caron" unicode="&#x2c7;" horiz-adv-x="1298" 
d="M582 1570l-432 432h270l228 -230l230 230h270l-432 -432h-134z" />
    <glyph glyph-name="ring" unicode="&#x2da;" horiz-adv-x="804" 
d="M496 1822q0 19 -7 37q-8 17 -20 30q-13 12 -30 20q-18 7 -37 7q-20 0 -37 -7q-17 -8 -29 -20q-13 -13 -20 -30q-8 -18 -8 -37q0 -20 8 -37q7 -17 20 -29q12 -13 29 -20q17 -8 37 -8q19 0 37 8q17 7 30 20q12 12 20 29zM654 1822q0 -52 -20 -97q-20 -46 -54 -80
q-35 -35 -80 -55q-46 -20 -98 -20t-97 20q-46 20 -80 55q-35 34 -55 80q-20 45 -20 97t20 98q20 45 55 80q34 34 80 54q45 20 97 20t98 -20q45 -20 80 -54q34 -35 54 -80z" />
    <glyph glyph-name="tilde" unicode="&#x2dc;" horiz-adv-x="1346" 
d="M1190 1950l-154 -280q-26 -48 -71 -74t-93 -26q-34 0 -72 16l-334 166l-100 -182h-210l154 280q26 47 71 73q45 25 93 25q18 0 36 -3q18 -4 36 -13l334 -166l100 184h210z" />
    <glyph glyph-name="endash" unicode="&#x2013;" horiz-adv-x="1360" 
d="M1210 590h-1060v318h1060v-318z" />
    <glyph glyph-name="emdash" unicode="&#x2014;" horiz-adv-x="1960" 
d="M1810 590h-1660v318h1660v-318z" />
    <glyph glyph-name="quoteleft" unicode="&#x2018;" horiz-adv-x="776" 
d="M626 1500l-150 -614h-326l150 614h326z" />
    <glyph glyph-name="quoteright" unicode="&#x2019;" horiz-adv-x="776" 
d="M626 1500l-150 -614h-326l150 614h326z" />
    <glyph glyph-name="quotesinglbase" unicode="&#x201a;" horiz-adv-x="776" 
d="M626 380l-150 -612h-326l150 612h326z" />
    <glyph glyph-name="quotedblleft" unicode="&#x201c;" horiz-adv-x="1206" 
d="M626 1500l-150 -614h-326l150 614h326zM1056 1500l-150 -614h-326l150 614h326z" />
    <glyph glyph-name="quotedblright" unicode="&#x201d;" horiz-adv-x="1206" 
d="M626 1500l-150 -614h-326l150 614h326zM1056 1500l-150 -614h-326l150 614h326z" />
    <glyph glyph-name="quotedblbase" unicode="&#x201e;" horiz-adv-x="1206" 
d="M626 380l-150 -612h-326l150 612h326zM1056 380l-150 -612h-326l150 612h326z" />
    <glyph glyph-name="dagger" unicode="&#x2020;" horiz-adv-x="1276" 
d="M1126 836h-330v-1080h-316v1080h-330v316h330v348h316v-348h330v-316z" />
    <glyph glyph-name="daggerdbl" unicode="&#x2021;" horiz-adv-x="1276" 
d="M1126 100h-330v-344h-316v344h-330v318h330v418h-330v316h330v348h316v-348h330v-316h-330v-418h330v-318z" />
    <glyph glyph-name="bullet" unicode="&#x2022;" horiz-adv-x="1132" 
d="M982 750q0 -86 -32 -162q-33 -76 -89 -132q-57 -57 -133 -89q-76 -33 -162 -33t-162 33q-76 32 -132 89q-57 56 -89 132q-33 76 -33 162q0 85 33 161q32 76 89 133q56 56 132 89t162 33t162 -33t133 -89q56 -57 89 -133z" />
    <glyph glyph-name="ellipsis" unicode="&#x2026;" horiz-adv-x="1854" 
d="M468 0h-318v316h318v-316zM1086 0h-318v316h318v-316zM1704 0h-318v316h318v-316z" />
    <glyph glyph-name="perthousand" unicode="&#x2030;" horiz-adv-x="3782" 
d="M750 862v320h-282v-320h282zM2080 1500l-1024 -1500h-384l808 1182h-414v-350q0 -59 -22 -111q-23 -53 -62 -92t-91 -62t-111 -23h-342q-59 0 -111 23q-53 23 -92 62t-62 92q-23 52 -23 111v380q0 59 23 112q23 52 62 91t92 62q52 23 111 23h1642zM2294 316v320h-282
v-320h282zM2610 286q0 -59 -22 -111q-23 -52 -62 -91t-91 -61q-52 -23 -111 -23h-342q-59 0 -111 23q-53 22 -92 61t-62 91t-23 111v380q0 59 23 112q23 52 62 91t92 62q52 23 111 23h342q59 0 111 -23t91 -62t62 -91q22 -53 22 -112v-380zM3314 316v320h-280v-320h280z
M3632 286q0 -59 -23 -111t-62 -91t-91 -61q-52 -23 -110 -23h-344q-59 0 -111 23q-52 22 -91 61t-61 91q-23 52 -23 111v380q0 59 23 112q22 52 61 91t91 62t111 23h344q59 0 111 -23t91 -62t62 -91q22 -53 22 -112v-380z" />
    <glyph glyph-name="guilsinglleft" unicode="&#x2039;" horiz-adv-x="1006" 
d="M856 272h-382l-324 478l324 478h382l-324 -478z" />
    <glyph glyph-name="guilsinglright" unicode="&#x203a;" horiz-adv-x="1006" 
d="M150 1228h382l324 -478l-324 -478h-382l324 478z" />
    <glyph glyph-name="Euro" unicode="&#x20ac;" horiz-adv-x="2338" 
d="M2188 0h-1410q-81 0 -152 31q-72 31 -126 84t-85 125q-31 71 -31 152v90h-234l132 230h102v74h-234l132 230h102v90q0 81 31 153q31 71 85 125t126 85q71 31 152 31h1410v-318h-1410q-32 0 -54 -22t-22 -54v-90h1290l-134 -230h-1156v-74h1114l-134 -230h-980v-90
q0 -30 22 -53t54 -23h1410v-316z" />
    <glyph glyph-name="trademark" unicode="&#x2122;" horiz-adv-x="2052" 
d="M672 814h-204v404h204v-404zM990 1296h-840v204h840v-204zM1264 814h-202v404h202v-404zM1582 814h-202v404h202v-404zM1902 814h-202v482h-638v204h638q41 0 78 -16t65 -43q27 -27 43 -64t16 -79v-484z" />
    </font>
</defs>
</svg>
